<svg width="273" height="534" viewBox="0 0 273 534" fill="none" xmlns="http://www.w3.org/2000/svg">
<path opacity="0.1" d="M53.5165 113.018C136.62 133.854 212.712 164.601 272.442 201.414V227.361C214.913 189.566 139.572 157.498 56.1503 136.015C48.9077 148.28 42.9813 160.983 37.9335 174.124C85.5587 181.79 131.429 196.464 174.445 217.489L184.322 222.308L174.665 242.02L164.789 237.201C122.65 216.394 77.6578 202.377 31.1298 195.149C27.6183 207.414 25.2041 219.899 23.6678 232.602C23.6549 232.757 23.6402 232.913 23.6268 233.068C120.125 248.431 207.627 296.82 271.893 370.585C272.076 370.407 272.26 370.23 272.442 370.052V400.338C243.592 426.673 219.198 453.69 211.758 466.734C219.345 465.502 236.151 460.727 272.442 443.54V478.144C271.043 475.353 269.617 472.572 268.162 469.801C260.7 473.086 254.116 475.933 247.971 478.342C252.141 487.979 255.871 497.835 259.602 508.129L260.967 511.63C261.097 511.631 261.226 511.633 261.356 511.633C265.057 511.813 268.757 511.88 272.442 511.867V523.192C272.442 528.574 268.577 533.048 263.473 534.001C261.45 533.927 259.428 533.842 257.406 533.754C107.507 525.431 -7.71617 397.304 0.404175 247.714C2.81842 201.501 17.0842 156.602 41.6649 117.836L45.8348 111.046L53.5165 113.018ZM227.341 485.132C219.22 487.322 212.855 488.417 207.807 488.417C204.735 488.417 202.32 487.979 200.126 487.322C201.882 491.483 203.638 495.864 205.393 500.463L206.368 502.995C206.481 503.027 206.595 503.059 206.708 503.091C216.457 505.685 226.633 507.639 236.815 509.163C233.803 500.805 230.784 492.863 227.341 485.132ZM22.119 254.976C19.0375 361.732 84.2017 455.575 178.88 493.73C174.109 483.392 169.298 474.921 161.059 463.887L154.475 455.126L172.033 442.204L178.617 450.965C182.567 456.44 185.86 461.478 188.713 466.077C190.249 459.726 194.42 452.498 201.224 443.299C200.126 441.766 198.809 440.014 197.492 438.48L190.688 429.938L207.807 416.359L214.611 424.901C215.05 425.339 215.269 425.778 215.708 426.216C218.341 423.15 221.415 419.864 224.487 416.579C225.804 415.046 227.34 413.731 228.657 412.198L223.39 405.409L240.728 392.049L244.459 396.648C248.848 392.487 252.799 388.763 256.091 385.697C195.562 315.882 113.119 269.904 22.119 254.976ZM268.16 277.502C269.594 278.67 271.021 279.846 272.442 281.031V310.052C266.529 304.745 260.483 299.586 254.333 294.585L245.773 287.577L259.6 270.493L268.16 277.502ZM207.368 245.306C209.782 243.115 212.855 242.02 216.147 242.239C219.439 242.458 222.293 243.773 224.487 246.182C226.682 248.591 227.779 251.657 227.559 254.942C227.34 258.228 226.023 261.075 223.609 263.266C221.415 265.237 218.342 266.332 215.489 266.332H214.83C211.538 266.113 208.685 264.799 206.49 262.39C204.296 259.981 203.199 256.914 203.418 253.629C203.637 250.563 204.954 247.496 207.368 245.306ZM263.608 0C268.646 1.00615 272.442 5.45156 272.442 10.7852V184.419H259.6V0.00488281H263.553V0.00390625C263.571 0.0023658 263.59 0.00151883 263.608 0ZM256.964 170.621C248.624 165.803 240.065 161.203 231.286 156.385L198.145 10.2988C205.168 8.32766 212.192 6.57512 219.434 5.04199L256.964 170.621ZM211.098 146.528C201.441 141.929 191.345 137.548 181.249 133.168L138.013 36.5801C144.158 32.8568 150.742 29.3526 157.326 26.0674L211.098 146.528ZM139.329 116.961C127.697 112.8 115.845 108.857 103.774 105.353L84.4608 78.4131C89.7281 73.1566 94.9958 68.1192 100.702 63.3008L139.329 116.961Z" fill="white"/>
</svg>
