<svg width="32" height="32" viewBox="0 0 32 32" fill="none" xmlns="http://www.w3.org/2000/svg">
<path d="M14.2222 8.55112H17.7777C17.8665 8.55112 17.9543 8.53365 18.0363 8.4997C18.1182 8.46575 18.1927 8.41599 18.2554 8.35326C18.3182 8.29053 18.3679 8.21605 18.4019 8.13409C18.4358 8.05213 18.4533 7.96428 18.4533 7.87557C18.4533 7.78685 18.4358 7.69901 18.4019 7.61704C18.3679 7.53508 18.3182 7.46061 18.2554 7.39788C18.1927 7.33515 18.1182 7.28539 18.0363 7.25144C17.9543 7.21749 17.8665 7.20001 17.7777 7.20001H14.2222C14.1335 7.20001 14.0456 7.21749 13.9637 7.25144C13.8817 7.28539 13.8072 7.33515 13.7445 7.39788C13.6818 7.46061 13.632 7.53508 13.5981 7.61704C13.5641 7.69901 13.5466 7.78685 13.5466 7.87557C13.5466 7.96428 13.5641 8.05213 13.5981 8.13409C13.632 8.21605 13.6818 8.29053 13.7445 8.35326C13.8072 8.41599 13.8817 8.46575 13.9637 8.4997C14.0456 8.53365 14.1335 8.55112 14.2222 8.55112Z" fill="#2B7441"/>
<path d="M29.5468 12.16C29.7259 12.16 29.8978 12.0888 30.0245 11.9621C30.1512 11.8354 30.2223 11.6636 30.2223 11.4844V7.87555C30.2218 7.73992 30.1809 7.60751 30.1049 7.49515C30.029 7.38278 29.9213 7.29552 29.7957 7.24444L16.249 1.82222C16.089 1.75974 15.9113 1.75974 15.7512 1.82222L2.20456 7.24444C2.07891 7.29552 1.97127 7.38278 1.89531 7.49515C1.81934 7.60751 1.77847 7.73992 1.77789 7.87555V11.4844C1.77789 11.6636 1.84906 11.8354 1.97576 11.9621C2.10245 12.0888 2.27428 12.16 2.45345 12.16H3.55567V25.2533H2.45345C2.36398 25.2533 2.2754 25.2711 2.19285 25.3056C2.11031 25.3401 2.03543 25.3906 1.97259 25.4543C1.90974 25.518 1.86016 25.5935 1.82674 25.6765C1.79332 25.7595 1.77671 25.8483 1.77789 25.9378V29.5467C1.77789 29.7258 1.84906 29.8977 1.97576 30.0243C2.10245 30.151 2.27428 30.2222 2.45345 30.2222H29.5468C29.7259 30.2222 29.8978 30.151 30.0245 30.0243C30.1512 29.8977 30.2223 29.7258 30.2223 29.5467V25.9378C30.2235 25.8483 30.2069 25.7595 30.1735 25.6765C30.1401 25.5935 30.0905 25.518 30.0276 25.4543C29.9648 25.3906 29.8899 25.3401 29.8074 25.3056C29.7248 25.2711 29.6362 25.2533 29.5468 25.2533H28.4446V12.16H29.5468ZM3.129 8.32888L16.0001 3.18222L28.8712 8.32888V10.8089H3.09345L3.129 8.32888ZM16.6757 25.2178V12.16H21.6446V25.2533L16.6757 25.2178ZM10.3557 25.2178V12.16H15.3246V25.2533L10.3557 25.2178ZM4.94233 12.16H9.00456V25.2533H4.94233V12.16ZM28.8712 28.8711H3.09345V26.6133H28.8712V28.8711ZM27.0934 25.2533H22.9957V12.16H27.0579L27.0934 25.2533Z" fill="#2B7441"/>
</svg>
