<svg width="48" height="48" viewBox="0 0 48 48" fill="none" xmlns="http://www.w3.org/2000/svg">
<g opacity="0.7" clip-path="url(#clip0_1452_89)">
<path d="M23.9829 4.10522C23.6515 4.10522 23.3828 4.37347 23.3828 4.7049V6.31485C23.3828 6.64627 23.6515 6.91452 23.9829 6.91452C24.3139 6.91452 24.5826 6.64627 24.5826 6.31485V4.7049C24.5826 4.37347 24.3139 4.10522 23.9829 4.10522Z" fill="#BC7409"/>
<path d="M39.3789 7.37503H35.1748C34.9766 5.29907 33.2238 3.66989 31.0966 3.66989H29.6098C29.0536 3.66989 28.5624 3.36273 28.3587 2.88757C27.6071 1.13342 25.8891 0 23.9825 0C22.0755 0 20.3579 1.13342 19.6058 2.88757C19.4021 3.36273 18.9109 3.66989 18.3548 3.66989H16.868C14.7407 3.66989 12.9879 5.29907 12.7897 7.37503H8.58563C6.79807 7.37503 5.34375 8.82935 5.34375 10.6174V44.7578C5.34375 46.5459 6.79807 48.0002 8.58563 48.0002H39.3789C41.1665 48.0002 42.6208 46.5459 42.6208 44.7578V10.6174C42.6208 8.82935 41.1665 7.37503 39.3789 7.37503ZM13.9698 7.76779C13.9698 6.16974 15.2699 4.86969 16.868 4.86969H18.3548C19.3916 4.86969 20.3158 4.27734 20.7086 3.35999C21.2712 2.04803 22.5561 1.1998 23.9825 1.1998C25.4084 1.1998 26.6934 2.04803 27.256 3.35999C27.6487 4.27734 28.573 4.86969 29.6098 4.86969H31.0966C32.6947 4.86969 33.9947 6.16974 33.9947 7.76779V9.81995H13.9698V7.76779ZM41.421 44.7578C41.421 45.8844 40.505 46.7999 39.3789 46.7999H8.58563C7.45999 46.7999 6.54355 45.8844 6.54355 44.7578V10.6174C6.54355 9.49082 7.45999 8.57529 8.58563 8.57529H12.7701V10.4196C12.7701 10.7515 13.0383 11.0197 13.3697 11.0197H34.5948C34.9263 11.0197 35.195 10.7515 35.195 10.4196V8.57529H39.3789C40.505 8.57529 41.421 9.49082 41.421 10.6174V44.7578Z" fill="#BC7409"/>
<path d="M34.1816 18.4071H13.7813C13.4503 18.4071 13.1816 18.6754 13.1816 19.0072C13.1816 19.3387 13.4503 19.6074 13.7813 19.6074H34.1816C34.513 19.6074 34.7817 19.3387 34.7817 19.0072C34.7817 18.6754 34.513 18.4071 34.1816 18.4071Z" fill="#BC7409"/>
<path d="M34.1816 24.674H13.7813C13.4503 24.674 13.1816 24.9422 13.1816 25.2741C13.1816 25.6055 13.4503 25.8737 13.7813 25.8737H34.1816C34.513 25.8737 34.7817 25.6055 34.7817 25.2741C34.7817 24.9422 34.513 24.674 34.1816 24.674Z" fill="#BC7409"/>
<path d="M34.1816 30.9403H13.7813C13.4503 30.9403 13.1816 31.209 13.1816 31.5404C13.1816 31.8723 13.4503 32.1406 13.7813 32.1406H34.1816C34.513 32.1406 34.7817 31.8723 34.7817 31.5404C34.7817 31.209 34.513 30.9403 34.1816 30.9403Z" fill="#BC7409"/>
<path d="M34.1816 37.2075H13.7813C13.4503 37.2075 13.1816 37.4762 13.1816 37.8076C13.1816 38.1391 13.4503 38.4078 13.7813 38.4078H34.1816C34.513 38.4078 34.7817 38.1391 34.7817 37.8076C34.7817 37.4762 34.513 37.2075 34.1816 37.2075Z" fill="#BC7409"/>
</g>
<defs>
<clipPath id="clip0_1452_89">
<rect width="48" height="48" fill="white"/>
</clipPath>
</defs>
</svg>
