<svg width="15" height="15" viewBox="0 0 15 15" fill="none" xmlns="http://www.w3.org/2000/svg">
<g clip-path="url(#clip0_717_670)">
<path d="M9.72061 8.12259L8.46433 9.38312C7.95488 9.89435 7.05852 9.90536 6.53806 9.38312L5.28172 8.12259L0.769531 12.6494C0.93749 12.7271 1.12268 12.7734 1.31955 12.7734H13.6828C13.8797 12.7734 14.0648 12.7271 14.2327 12.6495L9.72061 8.12259Z" fill="#2B7441"/>
<path d="M13.6828 2.22656H1.31949C1.12262 2.22656 0.937432 2.27291 0.769531 2.35058L5.59112 7.18816C5.59144 7.18849 5.59183 7.18855 5.59215 7.18887C5.59247 7.18919 5.59253 7.18963 5.59253 7.18963L7.16029 8.76258C7.32682 8.9291 7.67551 8.9291 7.84203 8.76258L9.40947 7.18989C9.40947 7.18989 9.40985 7.18919 9.41018 7.18887C9.41018 7.18887 9.41088 7.18849 9.4112 7.18816L14.2327 2.35055C14.0648 2.27285 13.8796 2.22656 13.6828 2.22656Z" fill="#2B7441"/>
<path d="M0.140215 2.96521C0.0533203 3.14093 0 3.33599 0 3.54494V11.4551C0 11.664 0.0532617 11.8591 0.140186 12.0348L4.6602 7.50016L0.140215 2.96521Z" fill="#2B7441"/>
<path d="M14.8598 2.96515L10.3398 7.50016L14.8598 12.0349C14.9467 11.8592 15 11.6641 15 11.4551V3.54493C15 3.33593 14.9467 3.14087 14.8598 2.96515Z" fill="#2B7441"/>
</g>
<defs>
<clipPath id="clip0_717_670">
<rect width="15" height="15" fill="white"/>
</clipPath>
</defs>
</svg>
