<svg width="30" height="30" viewBox="0 0 30 30" fill="none" xmlns="http://www.w3.org/2000/svg">
<path d="M21.5963 12.0284C21.4132 12.2115 21.4132 12.5084 21.5963 12.6913C22.2129 13.3081 22.5526 14.128 22.5526 15C22.5526 15.8721 22.2129 16.6919 21.5963 17.3087C21.4132 17.4916 21.4132 17.7885 21.5963 17.9716C21.6879 18.0631 21.8078 18.1089 21.9277 18.1089C22.0477 18.1089 22.1676 18.0631 22.2592 17.9716C23.0529 17.1778 23.4901 16.1225 23.4901 15C23.4901 13.8776 23.0529 12.8222 22.2592 12.0284C22.076 11.8453 21.7794 11.8453 21.5963 12.0284Z" fill="white"/>
<path d="M23.8707 9.75403C23.6876 9.93713 23.6876 10.2338 23.8707 10.4169C26.3976 12.944 26.3976 17.056 23.8707 19.5831C23.6876 19.7662 23.6876 20.0629 23.8707 20.246C23.9623 20.3375 24.0822 20.3833 24.2021 20.3833C24.3221 20.3833 24.442 20.3375 24.5336 20.246C27.4262 17.3534 27.4262 12.6466 24.5336 9.75403C24.3505 9.57092 24.0538 9.57092 23.8707 9.75403Z" fill="white"/>
<path d="M8.40353 12.0284C8.22043 11.8453 7.9238 11.8453 7.74069 12.0284C6.94693 12.8222 6.50977 13.8776 6.50977 15C6.50977 16.1225 6.94693 17.1778 7.74069 17.9716C7.83224 18.0631 7.95218 18.1089 8.07211 18.1089C8.19205 18.1089 8.31198 18.0631 8.40353 17.9716C8.58664 17.7885 8.58664 17.4916 8.40353 17.3087C7.78693 16.6919 7.44727 15.8721 7.44727 15C7.44727 14.128 7.78693 13.3081 8.40353 12.6913C8.58664 12.5084 8.58664 12.2115 8.40353 12.0284Z" fill="white"/>
<path d="M6.12917 9.75403C5.94607 9.57092 5.64944 9.57092 5.46633 9.75403C2.57372 12.6466 2.57372 17.3534 5.46633 20.246C5.55788 20.3375 5.67782 20.3833 5.79775 20.3833C5.91769 20.3833 6.03762 20.3375 6.12917 20.246C6.31228 20.0629 6.31228 19.7662 6.12917 19.5831C3.60232 17.056 3.60232 12.944 6.12917 10.4169C6.31228 10.2338 6.31228 9.93713 6.12917 9.75403Z" fill="white"/>
<path d="M18.4046 0.9375H11.5958C11.4672 0.9375 11.3445 0.990372 11.2557 1.08353C11.1674 1.17668 11.1211 1.30211 11.1275 1.43051L12.0769 19.688C12.0902 19.9372 12.2958 20.1324 12.5452 20.1324H17.4552C17.7047 20.1324 17.9102 19.9372 17.9235 19.688L18.8729 1.43051C18.8793 1.30211 18.8331 1.17668 18.7447 1.08353C18.6559 0.990372 18.5332 0.9375 18.4046 0.9375ZM17.0103 19.1949H12.9902L12.0898 1.875H17.9107L17.0103 19.1949Z" fill="white"/>
<path d="M15.0001 22.1812C13.1031 22.1812 11.5596 23.7245 11.5596 25.6217C11.5596 27.5189 13.1031 29.0625 15.0001 29.0625C16.8971 29.0625 18.4407 27.5189 18.4407 25.6217C18.4407 23.7245 16.8971 22.1812 15.0001 22.1812ZM15.0001 28.125C13.62 28.125 12.4971 27.0021 12.4971 25.6217C12.4971 24.2415 13.62 23.1187 15.0001 23.1187C16.3803 23.1187 17.5032 24.2415 17.5032 25.6217C17.5032 27.0021 16.3803 28.125 15.0001 28.125Z" fill="white"/>
</svg>
