<svg width="32" height="32" viewBox="0 0 32 32" fill="none" xmlns="http://www.w3.org/2000/svg">
<path d="M23.9022 19.4756L23.5289 19.3956C18.5727 18.2977 13.4362 18.2977 8.48 19.3956L8.10667 19.4845C6.70193 19.7818 5.44327 20.5559 4.54412 21.6754C3.64497 22.7949 3.16067 24.1909 3.17334 25.6267V29.5289C3.17334 29.7151 3.24732 29.8937 3.37901 30.0254C3.51071 30.1571 3.68932 30.2311 3.87556 30.2311H28.1244C28.3107 30.2311 28.4893 30.1571 28.621 30.0254C28.7527 29.8937 28.8267 29.7151 28.8267 29.5289V25.6178C28.8398 24.1832 28.3567 22.7882 27.4593 21.6689C26.5619 20.5496 25.3053 19.7747 23.9022 19.4756ZM10.0444 25.5556H21.9556L22.6045 28.8267H9.39556L10.0444 25.5556ZM22.6578 20.6489L21.9556 24.16H10.0444L9.34223 20.6489C13.7354 19.7512 18.2647 19.7512 22.6578 20.6489ZM4.57778 25.6178C4.57535 24.5786 4.90653 23.5661 5.52258 22.7292C6.13864 21.8924 7.00704 21.2753 8 20.9689L8.75556 24.8889L8 28.8267H4.57778V25.6178ZM27.4222 28.8267H24L23.2444 24.8889L24 20.9689C24.9897 21.2785 25.8541 21.8968 26.4668 22.7334C27.0795 23.57 27.4081 24.5809 27.4044 25.6178L27.4222 28.8267Z" fill="#2B7441"/>
<path d="M10.0889 12.2933C10.3195 13.4668 10.8916 14.546 11.7333 15.3955C12.5054 16.1688 13.4732 16.7176 14.5331 16.9832C15.593 17.2488 16.7052 17.2213 17.7506 16.9035C18.7961 16.5858 19.7355 15.9898 20.4684 15.1793C21.2012 14.3688 21.6999 13.3743 21.9111 12.3022C24.5778 11.6267 26.0267 10.5244 26.0267 9.23555C26.0267 7.94666 24.3733 6.81777 22.0267 6.22222C22.0267 5.04348 21.5584 3.91301 20.7249 3.07952C19.8914 2.24602 18.761 1.77777 17.5822 1.77777H14.4C13.2213 1.77777 12.0908 2.24602 11.2573 3.07952C10.4238 3.91301 9.95557 5.04348 9.95557 6.22222C7.6089 6.83555 5.95557 7.85777 5.95557 9.25333C5.95557 10.6489 7.44001 11.6178 10.0889 12.2933ZM14.4 3.17333H17.6C18.3472 3.17617 19.0669 3.45574 19.6201 3.95806C20.1733 4.46038 20.5208 5.14983 20.5956 5.89333C19.0778 5.63185 17.5401 5.50395 16 5.5111C14.4599 5.50395 12.9222 5.63185 11.4045 5.89333C11.4792 5.14983 11.8267 4.46038 12.3799 3.95806C12.9331 3.45574 13.6528 3.17617 14.4 3.17333ZM16 6.90666C21.5822 6.90666 24.6222 8.44444 24.6222 9.23555C24.6222 9.5911 23.9111 10.2667 22.0267 10.8178V9.40444C22.0378 9.30619 22.028 9.20671 21.998 9.11249C21.968 9.01828 21.9185 8.93147 21.8526 8.85773C21.7867 8.78399 21.706 8.725 21.6158 8.68461C21.5255 8.64421 21.4278 8.62333 21.3289 8.62333C21.23 8.62333 21.1323 8.64421 21.042 8.68461C20.9518 8.725 20.8711 8.78399 20.8052 8.85773C20.7393 8.93147 20.6898 9.01828 20.6598 9.11249C20.6298 9.20671 20.62 9.30619 20.6311 9.40444V11.1378C20.6263 12.3647 20.1376 13.5402 19.2711 14.4089C18.8424 14.84 18.3327 15.1821 17.7713 15.4155C17.21 15.6489 16.608 15.7691 16 15.7691C15.392 15.7691 14.7901 15.6489 14.2287 15.4155C13.6673 15.1821 13.1576 14.84 12.7289 14.4089C11.8624 13.5402 11.3737 12.3647 11.3689 11.1378V9.40444C11.38 9.30619 11.3702 9.20671 11.3402 9.11249C11.3102 9.01828 11.2607 8.93147 11.1948 8.85773C11.1289 8.78399 11.0482 8.725 10.958 8.68461C10.8678 8.64421 10.77 8.62333 10.6711 8.62333C10.5722 8.62333 10.4745 8.64421 10.3842 8.68461C10.294 8.725 10.2133 8.78399 10.1474 8.85773C10.0816 8.93147 10.032 9.01828 10.002 9.11249C9.972 9.20671 9.96224 9.30619 9.97334 9.40444V10.8267C8.08001 10.2755 7.37779 9.59999 7.37779 9.23555C7.37779 8.44444 10.4178 6.90666 16 6.90666Z" fill="#2B7441"/>
</svg>
