<svg width="100" height="92" viewBox="0 0 100 92" fill="none" xmlns="http://www.w3.org/2000/svg">
<g clip-path="url(#clip0_559_5146)">
<path d="M49.4887 0.626953V32.8438H39.3984V0.626953H49.4887Z" fill="white"/>
<path d="M52.918 0.617188H75.3892V8.37163H62.9859V13.5936H74.0148V21.348H62.9859V32.8452H52.918V0.617188Z" fill="white"/>
<path d="M99.7268 32.0263C97.8495 32.6763 95.0671 33.315 92.5083 33.315C83.7924 33.315 76.8086 27.6896 76.8086 16.2037C76.8198 5.40122 84.1053 0 92.5194 0C95.3018 0 96.9556 0.414616 99.6597 1.01973V9.51376C98.0059 8.86382 96.3186 8.31474 94.6202 8.31474C90.3405 8.31474 87.1112 11.1274 87.1112 16.3942C87.1112 21.9298 90.117 24.7425 94.285 24.7425C96.1287 24.7425 97.8942 24.2831 99.7379 23.4987V32.0375L99.7268 32.0263Z" fill="white"/>
<path d="M0.671875 39.7031H3.47658V50.2478H0.671875V39.7031Z" fill="white"/>
<path d="M5.2768 42.38H7.74628V43.8255H7.77981C8.32734 42.6937 9.41123 42.1895 10.6404 42.1895C12.7746 42.1895 13.6351 43.7022 13.6351 45.3271V50.2353H10.9197V46.4253C10.9197 44.9461 10.4169 44.4418 9.66824 44.4418C8.55082 44.4418 7.98094 45.215 7.98094 46.9071V50.2353H5.26562V42.3575L5.2768 42.38Z" fill="white"/>
<path d="M14.4833 42.381H16.0812V40.6105L18.7406 39.7812V42.381H20.6402V44.286H18.7406V47.1883C18.7406 48.1408 18.9641 48.6227 19.8245 48.6227C20.1039 48.6227 20.3832 48.5666 20.6514 48.5218L20.7408 50.2923C20.2268 50.3484 19.7128 50.438 19.0312 50.438C16.6064 50.438 16.0141 49.3623 16.0141 47.4909V44.286H14.4609V42.381H14.4833Z" fill="white"/>
<path d="M24.0809 47.1093C24.2261 48.1963 25.0642 48.6221 26.3827 48.6221C27.1202 48.6221 27.9583 48.454 28.774 48.017V49.9332C27.9024 50.2806 26.9079 50.4375 25.9023 50.4375C23.3099 50.4375 21.332 48.9135 21.332 46.3137C21.332 43.714 23.0975 42.2012 25.5335 42.2012C28.4388 42.2012 29.5003 44.2743 29.5003 46.6163V47.1205H24.0697L24.0809 47.1093ZM27.0532 45.5629C27.0532 44.6553 26.6286 43.9157 25.5447 43.9157C24.5614 43.9157 24.092 44.6553 24.0362 45.5629H27.0532Z" fill="white"/>
<path d="M36.375 44.5539C36.0733 44.4642 35.7716 44.4642 35.4588 44.4642C34.1961 44.4642 33.4809 45.3831 33.4809 46.9295V50.2577H30.7656V42.38H33.2351V43.8255H33.2686C33.7379 42.8282 34.4084 42.1895 35.5817 42.1895C35.8946 42.1895 36.2298 42.2343 36.498 42.2791L36.3639 44.5427L36.375 44.5539Z" fill="white"/>
<path d="M37.5698 42.38H40.0393V43.8255H40.0728C40.6203 42.6937 41.7042 42.1895 42.9334 42.1895C45.0676 42.1895 45.928 43.7022 45.928 45.3271V50.2353H43.2127V46.4253C43.2127 44.9461 42.6987 44.4418 41.9612 44.4418C40.8438 44.4418 40.2739 45.215 40.2739 46.9071V50.2353H37.5586V42.3575L37.5698 42.38Z" fill="white"/>
<path d="M52.6104 50.247C52.5992 49.8211 52.5545 49.4177 52.5545 49.0031H52.5322C51.9176 49.9892 51.1578 50.4263 50.0404 50.4263C48.4872 50.4263 47.1016 49.6531 47.1016 47.9498C47.1016 45.5517 49.7051 45.2604 51.1466 45.2604C51.5824 45.2604 52.0629 45.3052 52.4093 45.3612C52.3869 44.2855 51.5936 44.0053 50.6102 44.0053C49.7387 44.0053 48.8671 44.1734 48.1072 44.5992L48.0625 42.7615C49.0347 42.3693 50.0404 42.2012 51.2025 42.2012C53.2026 42.2012 54.9346 43.064 54.9346 45.4621V48.398C54.9346 49.0143 54.9682 49.6419 55.0911 50.2582H52.5992L52.6104 50.247ZM50.7332 48.6109C51.7612 48.6109 52.4093 47.6696 52.4093 46.7507C52.0629 46.7283 51.6718 46.7059 51.2583 46.7059C50.3421 46.7059 49.6157 46.9973 49.6157 47.7481C49.6157 48.2859 50.0962 48.6109 50.722 48.6109H50.7332Z" fill="white"/>
<path d="M55.8393 42.381H57.426V40.6105L60.0966 39.7812V42.381H61.9963V44.286H60.0966V47.1883C60.0966 48.1408 60.3201 48.6227 61.1805 48.6227C61.4487 48.6227 61.7392 48.5666 62.0074 48.5218L62.0968 50.2923C61.5828 50.3484 61.08 50.438 60.3872 50.438C57.9624 50.438 57.3702 49.3623 57.3702 47.4909V44.286H55.8281V42.381H55.8393Z" fill="white"/>
<path d="M66.0864 41.0923H63.3711V39.0977H66.0864V41.0923ZM63.3823 42.381H66.0976V50.2587H63.3823V42.381Z" fill="white"/>
<path d="M67.5586 46.3132C67.5586 43.7022 69.5364 42.1895 72.1288 42.1895C74.7212 42.1895 76.699 43.7022 76.699 46.3132C76.699 48.9242 74.7212 50.4257 72.1288 50.4257C69.5364 50.4257 67.5586 48.913 67.5586 46.3132ZM73.8943 46.3132C73.8943 45.1366 73.3803 44.0944 72.1288 44.0944C70.8773 44.0944 70.3745 45.1366 70.3745 46.3132C70.3745 47.4898 70.8885 48.5208 72.1288 48.5208C73.3692 48.5208 73.8943 47.4786 73.8943 46.3132Z" fill="white"/>
<path d="M77.8505 42.38H80.32V43.8255H80.3423C80.8787 42.6937 81.9737 42.1895 83.2029 42.1895C85.3483 42.1895 86.1976 43.7022 86.1976 45.3271V50.2353H83.4822V46.4253C83.4822 44.9461 82.9794 44.4418 82.2307 44.4418C81.1133 44.4418 80.5434 45.215 80.5434 46.9071V50.2353H77.8281V42.3575L77.8505 42.38Z" fill="white"/>
<path d="M92.8917 50.247C92.8805 49.8211 92.8358 49.4177 92.8358 49.0031H92.8023C92.1877 49.9892 91.439 50.4263 90.3216 50.4263C88.7684 50.4263 87.3828 49.6531 87.3828 47.9498C87.3828 45.5517 89.9864 45.2604 91.439 45.2604C91.8748 45.2604 92.3553 45.3052 92.7017 45.3612C92.6905 44.2855 91.886 44.0053 90.9027 44.0053C90.0311 44.0053 89.1595 44.1734 88.4108 44.5992L88.3661 42.7615C89.3383 42.3693 90.344 42.2012 91.4949 42.2012C93.4951 42.2012 95.2271 43.064 95.2271 45.4621V48.398C95.2271 49.0143 95.2606 49.6419 95.3723 50.2582H92.8917V50.247ZM91.0256 48.6109C92.0536 48.6109 92.7017 47.6696 92.7017 46.7507C92.3553 46.7283 91.9642 46.7059 91.5619 46.7059C90.6457 46.7059 89.9193 46.9973 89.9193 47.7481C89.9193 48.2859 90.3998 48.6109 91.0368 48.6109H91.0256Z" fill="white"/>
<path d="M97.1289 38.918H99.8442V50.2471H97.1289V38.918Z" fill="white"/>
<path d="M0.679688 54.0234H7.70822V56.0181H3.47322V58.3265H7.52944V60.3211H3.47322V64.5681H0.679688V54.0234Z" fill="white"/>
<path d="M11.8755 55.4243H9.16016V53.4297H11.8755V55.4243ZM9.16016 56.7018H11.8755V64.5795H9.16016V56.7018Z" fill="white"/>
<path d="M13.7305 56.7027H16.2V58.1595H16.2335C16.7698 57.0277 17.8649 56.5234 19.0941 56.5234C21.2395 56.5234 22.0999 58.0362 22.0999 59.6723V64.5804H19.3846V60.7705C19.3846 59.2913 18.8706 58.787 18.1331 58.787C17.0157 58.787 16.4458 59.5602 16.4458 61.2523V64.5804H13.7305V56.7027Z" fill="white"/>
<path d="M28.7622 64.5687C28.751 64.1429 28.7063 63.7395 28.7063 63.3249H28.6728C28.0582 64.311 27.2984 64.748 26.181 64.748C24.6278 64.748 23.2422 63.9748 23.2422 62.2715C23.2422 59.8735 25.8458 59.5821 27.2984 59.5821C27.7342 59.5821 28.2147 59.6269 28.5611 59.683C28.5387 58.6072 27.7454 58.3271 26.762 58.3271C25.8905 58.3271 25.0189 58.4952 24.259 58.921L24.2143 57.072C25.1753 56.6798 26.1922 56.5117 27.3431 56.5117C29.3433 56.5117 31.0864 57.3746 31.0864 59.7726V62.6973C31.0864 63.3137 31.1088 63.9412 31.2317 64.5575H28.7399L28.7622 64.5687ZM26.8961 62.9439C27.9242 62.9439 28.5723 62.0138 28.5723 61.0837C28.2259 61.0725 27.8348 61.0389 27.4213 61.0389C26.505 61.0389 25.7787 61.3302 25.7787 62.081C25.7787 62.6301 26.2592 62.9439 26.8961 62.9439Z" fill="white"/>
<path d="M32.683 56.7027H35.1525V58.1595H35.1861C35.7336 57.0277 36.8175 56.5234 38.0466 56.5234C40.1921 56.5234 41.0413 58.0362 41.0413 59.6723V64.5804H38.326V60.7705C38.326 59.2913 37.812 58.787 37.0745 58.787C35.9571 58.787 35.3872 59.5602 35.3872 61.2523V64.5804H32.6719V56.7027H32.683Z" fill="white"/>
<path d="M48.7171 58.9551C48.2254 58.6526 47.7226 58.5181 47.0745 58.5181C45.9012 58.5181 44.9961 59.3361 44.9961 60.692C44.9961 61.9471 46.0465 62.7651 47.2309 62.7651C47.8455 62.7651 48.4601 62.6306 48.9182 62.3841L48.9741 64.4124C48.2925 64.6365 47.488 64.7597 46.7616 64.7597C44.1692 64.7597 42.1914 63.2469 42.1914 60.6472C42.1914 58.0474 44.1692 56.5234 46.7616 56.5234C47.5773 56.5234 48.3037 56.6579 48.9182 56.9605L48.7171 58.9551Z" fill="white"/>
<path d="M52.327 61.4311C52.4722 62.5181 53.3103 62.9439 54.6288 62.9439C55.3663 62.9439 56.2044 62.7758 57.0201 62.3388V64.255C56.1485 64.6023 55.154 64.748 54.1483 64.748C51.5559 64.748 49.5781 63.224 49.5781 60.6243C49.5781 58.0245 51.3436 56.5117 53.7796 56.5117C56.6849 56.5117 57.7352 58.5848 57.7352 60.9268V61.4311H52.3158H52.327ZM55.3105 59.8959C55.3105 58.9882 54.8858 58.2486 53.802 58.2486C52.8298 58.2486 52.3605 58.9882 52.3046 59.8959H55.3105Z" fill="white"/>
<path d="M9.1628 78.643C8.36943 78.8335 7.4755 79.0688 6.04521 79.0688C3.2405 79.0688 0 77.6457 0 73.6564C0 69.9809 2.55888 68.1543 6.02286 68.1543C7.09558 68.1543 8.13478 68.4008 9.14045 68.7034L8.91697 70.9782C8.01186 70.4851 7.14028 70.2386 6.16813 70.2386C4.17913 70.2386 2.88293 71.6841 2.88293 73.6452C2.88293 75.7182 4.34674 76.9733 6.39161 76.9733C7.30789 76.9733 8.24652 76.7268 9.01753 76.4242L9.15162 78.6318L9.1628 78.643Z" fill="white"/>
<path d="M9.77734 74.9577C9.77734 72.3468 11.7552 70.834 14.3476 70.834C16.94 70.834 18.9066 72.3468 18.9066 74.9577C18.9066 77.5687 16.9288 79.0703 14.3476 79.0703C11.7663 79.0703 9.77734 77.5575 9.77734 74.9577ZM16.1019 74.9577C16.1019 73.7811 15.5879 72.739 14.3364 72.739C13.0849 72.739 12.5709 73.7811 12.5709 74.9577C12.5709 76.1344 13.0849 77.1653 14.3364 77.1653C15.5879 77.1653 16.1019 76.1231 16.1019 74.9577Z" fill="white"/>
<path d="M25.668 73.1872C25.3663 73.0976 25.0646 73.0976 24.7406 73.0976C23.4779 73.0976 22.7739 74.0164 22.7739 75.5629V78.891H20.0586V71.0133H22.5281V72.47H22.5616C23.0309 71.4727 23.7014 70.834 24.8858 70.834C25.1987 70.834 25.5339 70.8788 25.8021 70.9236L25.668 73.1872Z" fill="white"/>
<path d="M26.6836 71.0133H29.1754V72.4364H29.209C29.7565 71.3382 30.8962 70.834 32.1366 70.834C34.3044 70.834 35.5 72.9071 35.5 74.8121C35.5 77.1317 34.2485 79.0703 31.9131 79.0703C30.9633 79.0703 29.9353 78.7229 29.4324 77.7816H29.3989V82.0622H26.6948V71.0133H26.6836ZM31.0527 72.9183C30.0582 72.9183 29.3989 73.7923 29.3989 74.9689C29.3989 76.1456 30.1588 76.9748 31.0527 76.9748C32.0807 76.9748 32.6953 76.1119 32.6953 74.8569C32.6953 73.8147 32.1031 72.9071 31.0527 72.9071V72.9183Z" fill="white"/>
<path d="M36.2695 74.9577C36.2695 72.3468 38.2474 70.834 40.8398 70.834C43.4322 70.834 45.41 72.3468 45.41 74.9577C45.41 77.5687 43.4322 79.0703 40.8398 79.0703C38.2474 79.0703 36.2695 77.5575 36.2695 74.9577ZM42.6053 74.9577C42.6053 73.7811 42.0913 72.739 40.8398 72.739C39.5883 72.739 39.0742 73.7811 39.0742 74.9577C39.0742 76.1344 39.5883 77.1653 40.8398 77.1653C42.0913 77.1653 42.6053 76.1231 42.6053 74.9577Z" fill="white"/>
<path d="M52.1719 73.1872C51.8702 73.0976 51.5685 73.0976 51.2556 73.0976C49.993 73.0976 49.2778 74.0164 49.2778 75.5629V78.891H46.5625V71.0133H49.032V72.47H49.0655C49.5348 71.4727 50.2164 70.834 51.3897 70.834C51.7026 70.834 52.0378 70.8788 52.306 70.9236L52.1719 73.1872Z" fill="white"/>
<path d="M58.2388 78.891C58.2276 78.4652 58.1829 78.0618 58.1829 77.6471H58.1494C57.5348 78.6333 56.775 79.0703 55.6576 79.0703C54.1043 79.0703 52.7188 78.2971 52.7188 76.5938C52.7188 74.1957 55.3223 73.9044 56.7638 73.9044C57.1996 73.9044 57.6912 73.9492 58.0265 74.0052C58.0153 72.9295 57.2219 72.6493 56.2386 72.6493C55.367 72.6493 54.4843 72.8174 53.7356 73.2432L53.6909 71.3943C54.6519 71.0021 55.6687 70.834 56.8308 70.834C58.831 70.834 60.563 71.6968 60.563 74.0949V77.0196C60.563 77.6359 60.5965 78.2635 60.7083 78.8798H58.2276L58.2388 78.891ZM56.3727 77.2549C57.4007 77.2549 58.0376 76.3248 58.0376 75.3948C57.6912 75.3836 57.3001 75.3499 56.8979 75.3499C55.9816 75.3499 55.2553 75.6413 55.2553 76.3921C55.2553 76.9412 55.7358 77.2549 56.3727 77.2549Z" fill="white"/>
<path d="M61.4682 71.0124H63.0661V69.2531L65.7256 68.4238V71.0236H67.6252V72.9286H65.7256V75.8309C65.7256 76.7834 65.949 77.2652 66.8094 77.2652C67.0776 77.2652 67.3682 77.198 67.6363 77.1532L67.7257 78.9237C67.2117 78.9797 66.6977 79.0694 66.0273 79.0694C63.6025 79.0694 63.0102 77.9936 63.0102 76.1222V72.9174H61.457V71.0124H61.4682Z" fill="white"/>
<path d="M71.727 69.7349H69.0117V67.7402H71.727V69.7349ZM69.0117 71.0123H71.727V78.8901H69.0117V71.0123Z" fill="white"/>
<path d="M73.2031 74.9577C73.2031 72.3468 75.1698 70.834 77.7733 70.834C80.3769 70.834 82.3324 72.3468 82.3324 74.9577C82.3324 77.5687 80.3546 79.0703 77.7733 79.0703C75.1921 79.0703 73.2031 77.5575 73.2031 74.9577ZM79.5277 74.9577C79.5277 73.7811 79.0137 72.739 77.7622 72.739C76.5107 72.739 75.9967 73.7811 75.9967 74.9577C75.9967 76.1344 76.5107 77.1653 77.7622 77.1653C79.0137 77.1653 79.5277 76.1231 79.5277 74.9577Z" fill="white"/>
<path d="M83.4916 71.0133H85.9611V72.47H85.9947C86.5422 71.3382 87.6261 70.834 88.8552 70.834C91.0007 70.834 91.8499 72.3468 91.8499 73.9828V78.891H89.1346V75.081C89.1346 73.6018 88.6206 73.0976 87.8831 73.0976C86.7657 73.0976 86.1958 73.8708 86.1958 75.5629V78.891H83.4805V71.0133H83.4916Z" fill="white"/>
<path d="M80.5321 85.8705C82.0629 85.8705 82.9121 86.6101 82.9121 87.966C82.9121 89.2434 82.0741 90.0054 80.6885 90.0054H79.7163V91.9553H78.4201V85.8817H80.5321V85.8705ZM79.7163 88.9409H80.4874C81.236 88.9409 81.6159 88.6047 81.6159 87.966C81.6159 87.3272 81.2025 86.9462 80.4427 86.9462H79.7163V88.9409ZM76.04 89.5124C76.04 90.4088 75.7048 90.8459 75.0009 90.8459C74.2969 90.8459 73.9281 90.3976 73.9281 89.5124V85.8705H72.6431V89.4227C72.6431 90.2968 72.8554 90.9579 73.28 91.3838C73.6823 91.7872 74.2634 91.9889 75.0009 91.9889C76.0624 91.9889 77.3363 91.5406 77.3363 89.4227V85.8705H76.04V89.5124ZM69.1233 85.8257C70.4306 85.8257 71.8274 86.6437 71.8274 88.9297C71.8274 91.2157 70.4306 92.0113 69.1233 92.0113C67.8159 92.0113 66.4079 91.2045 66.4079 88.9297C66.4079 86.6549 67.8047 85.8257 69.1233 85.8257ZM69.1233 90.8683C69.6373 90.8683 70.4977 90.6106 70.4977 88.9185C70.4977 87.2264 69.6373 86.9687 69.1233 86.9687C68.2293 86.9687 67.7377 87.6634 67.7377 88.9185C67.7377 90.1735 68.2293 90.8683 69.1233 90.8683ZM65.0782 90.1063C65.2905 90.5433 65.4805 90.9131 65.9051 90.9131H66.2068V91.9104H66.1621C66.1621 91.9104 65.9275 91.9777 65.5364 91.9777C64.5195 91.9777 64.2066 91.2717 63.9273 90.6554C63.7038 90.1511 63.5138 89.7141 62.9775 89.7141H62.4076V91.9441H61.1114V85.8705H63.2568C64.8212 85.8705 65.5587 86.4868 65.5587 87.8091C65.5587 88.6271 65.067 89.1314 64.5865 89.3443C64.7989 89.5572 64.9441 89.8373 65.0782 90.1175M62.4076 88.7168H63.1227C63.8491 88.7168 64.2848 88.3806 64.2848 87.8427C64.2848 87.2712 63.8938 86.9462 63.2233 86.9462H62.4076V88.7168ZM57.6809 89.7253H59.0107V89.7925C59.0107 90.1847 58.8766 90.8459 57.9379 90.8459C57.0663 90.8459 56.5412 90.1287 56.5412 88.9185C56.5412 87.7082 57.044 86.9687 57.9156 86.9687C58.9548 86.9687 58.9883 88.022 58.9883 88.0668V88.1341L60.1951 87.9436V87.8875C60.1951 87.4505 59.804 85.8145 57.8932 85.8145C56.1836 85.8145 55.2003 86.9462 55.2003 88.9185C55.2003 90.8907 56.2171 92.0001 57.9044 92.0001C59.5917 92.0001 60.2175 90.8123 60.2175 89.7925V88.7392H57.6698V89.7365L57.6809 89.7253ZM53.8147 85.8705H52.2838L50.2725 88.6047V85.8705H48.9651V91.9441H50.2725V89.1426L52.3285 91.9441H53.8817L51.5351 88.8736L53.8147 85.8593V85.8705ZM46.518 89.6244L44.3949 85.8705H43.0875V91.9441H44.3837V88.3246L46.4956 91.9441H47.8142V85.8705H46.518V89.6244ZM40.5286 85.9153L42.7411 91.9553H41.4002L40.8862 90.4649H38.8637L38.3608 91.9553H37.0088L39.2324 85.8817H40.5063L40.5286 85.9265V85.9153ZM39.8693 87.5289L39.2101 89.4451H40.5398L39.8693 87.5289ZM35.8131 88.7504C36.2824 88.8848 36.8858 89.3107 36.8858 90.2296C36.8858 91.3277 36.1148 91.9553 34.7628 91.9553H32.2039V85.8817H34.5058C35.8243 85.8817 36.4836 86.4308 36.4836 87.5177C36.4836 88.3582 36.1037 88.6495 35.802 88.7616M34.3717 88.3582C34.908 88.3582 35.165 88.1229 35.165 87.641C35.165 87.1816 34.841 86.9462 34.2152 86.9462H33.4889V88.3582H34.3717ZM33.4889 90.8795H34.5058C35.165 90.8795 35.4667 90.633 35.4667 90.0951C35.4667 89.4451 34.9304 89.2995 34.4722 89.2995H33.4889V90.8683V90.8795ZM26.885 85.8705C28.7734 85.8705 29.8908 87.0471 29.8908 89.0081C29.8908 90.9691 28.8852 91.9441 27.1308 91.9441H25.0748V85.8705H26.8738H26.885ZM26.371 90.8795H27.1196C28.0471 90.8795 28.6058 90.1847 28.6058 88.9969C28.6058 87.641 28.0136 86.9462 26.8626 86.9462H26.371V90.8795ZM21.8566 85.8705H20.5716V91.9441H24.4825V90.8683H21.8566V85.8705ZM18.8284 90.1063C19.0407 90.5433 19.2307 90.9131 19.6553 90.9131H19.957V91.9104H19.9123C19.9123 91.9104 19.6777 91.9777 19.2866 91.9777C18.2697 91.9777 17.9568 91.2717 17.6775 90.6554C17.454 90.1511 17.2529 89.7141 16.7165 89.7141H16.1466V91.9441H14.8504V85.8705H16.9959C18.5714 85.8705 19.2977 86.4868 19.2977 87.8091C19.2977 88.6271 18.8061 89.1314 18.3256 89.3443C18.5379 89.5572 18.6832 89.8373 18.8173 90.1175M16.1578 88.7168H16.873C17.5881 88.7168 18.0351 88.3806 18.0351 87.8427C18.0351 87.2712 17.644 86.9462 16.9735 86.9462H16.1578V88.7168ZM11.42 85.8257C12.7273 85.8257 14.1353 86.6437 14.1353 88.9297C14.1353 91.2157 12.7385 92.0113 11.42 92.0113C10.1014 92.0113 8.70466 91.2045 8.70466 88.9297C8.70466 86.6549 10.1014 85.8257 11.42 85.8257ZM11.42 90.8683C11.934 90.8683 12.7944 90.6106 12.7944 88.9185C12.7944 87.2264 11.934 86.9687 11.42 86.9687C10.526 86.9687 10.0344 87.6634 10.0344 88.9185C10.0344 90.1735 10.526 90.8683 11.42 90.8683ZM7.07323 85.8705H8.53705L6.79388 91.9441H5.33007L4.26852 88.1341L3.1958 91.9441H1.74317L0 85.8705H1.49734L2.51418 90.308L3.73216 85.8705H4.81606L6.00051 90.308L7.06206 85.8705H7.07323Z" fill="white"/>
<mask id="mask0_559_5146" style="mask-type:luminance" maskUnits="userSpaceOnUse" x="0" y="0" width="34" height="34">
<path d="M20.3593 27.2414C22.5382 27.219 24.6166 26.894 26.4492 26.2777C26.9073 26.1208 27.3543 25.9527 27.7677 25.7622C27.2649 27.0061 26.5051 28.0482 25.5329 28.8214C23.611 30.2446 21.3314 31.2195 18.8731 31.5893C19.4877 30.5247 19.9905 29.0119 20.3705 27.2302M10.0903 30.2782C10.0903 30.2782 9.98968 30.1998 9.94499 30.1773C9.08458 29.7627 8.73818 27.8353 9.18515 24.9106C10.8277 25.6502 12.6268 26.2441 14.5152 26.6475C15.9455 26.9501 17.3646 27.1406 18.7614 27.219C18.0798 30.1998 17.197 31.7574 16.6271 31.7574C16.5936 31.7574 16.5601 31.7574 16.5154 31.7574C14.2135 31.7462 12.0346 31.2083 10.0903 30.267M2.12309 20.7868C1.989 20.2826 1.91078 19.7671 1.87726 19.2516C2.39127 19.9912 3.02819 20.7084 3.77686 21.4032C4.90545 22.4565 6.24635 23.3866 7.74368 24.1934C7.44198 25.9079 7.35259 27.4543 7.54255 28.7094C4.96132 26.7484 3.03937 23.9917 2.12309 20.7981M21.3314 16.6295C21.3314 16.0244 21.3314 15.4192 21.2979 14.8141C23.2199 14.6909 24.9966 14.1866 26.4604 13.3462C27.8124 16.0244 28.5388 18.8482 28.5276 21.5152C28.5276 22.2884 28.4605 23.0168 28.3376 23.7116C27.6448 24.1374 26.8403 24.5072 25.9464 24.8097C24.3485 25.3476 22.5494 25.639 20.6498 25.695C21.108 22.9384 21.3314 19.7447 21.3314 16.6407M14.8393 25.1235C12.9285 24.7089 11.1183 24.1038 9.47567 23.3306C10.012 20.9101 11.0177 17.963 12.6044 14.7021C12.8391 14.2314 13.0737 13.7608 13.3084 13.3125C14.4146 13.8168 15.6215 14.209 16.8953 14.478C17.8563 14.6797 18.8173 14.8029 19.7559 14.8253C19.7671 15.408 19.7782 16.0019 19.7782 16.6183C19.7782 20.2714 19.4877 23.297 19.0631 25.6614C17.6775 25.6054 16.2584 25.4261 14.8281 25.1123M4.81606 20.2602C3.50868 19.0387 2.60358 17.7613 2.14544 16.4838C2.51418 15.0495 3.21815 13.6151 4.25735 12.2368C5.24067 10.9257 6.46983 9.74909 7.8666 8.74056C8.26887 9.46894 8.83875 10.1861 9.56507 10.8697C10.2467 11.5196 11.0512 12.1023 11.9452 12.6178C11.6993 13.0772 11.4535 13.5591 11.23 14.0297C9.85559 16.8424 8.73818 19.868 8.07891 22.6134C6.86092 21.9186 5.76586 21.1342 4.82723 20.2714M20.2811 5.87186C22.0354 7.18295 23.6445 8.87503 24.9966 10.8585C25.2536 11.2395 25.4882 11.6205 25.7229 12.0015C24.4825 12.7186 22.9293 13.1445 21.242 13.2677C21.0968 10.5895 20.7839 8.02339 20.2811 5.88307M17.2194 12.9652C16.1019 12.7298 15.0404 12.3825 14.0571 11.9454C15.4985 9.41291 17.0741 7.21657 18.6273 5.58051C19.119 7.49671 19.5212 10.0741 19.6888 13.2789C18.8731 13.2453 18.0351 13.1445 17.2082 12.9652M10.6154 9.73788C9.97851 9.13276 9.48685 8.51644 9.1628 7.88892C10.6154 7.01486 12.2133 6.30889 13.923 5.78222C14.9398 5.47966 15.9679 5.24434 16.9847 5.09866C15.5097 6.75713 14.0347 8.87503 12.6715 11.2619C11.9005 10.8136 11.2077 10.3094 10.6043 9.74909M7.28554 4.7961C7.26319 4.87454 7.24084 4.95298 7.22967 5.03142C7.07323 5.75981 7.09558 6.5106 7.27437 7.25018C5.60942 8.40439 4.16796 9.76029 3.01702 11.2843C2.67062 11.7549 2.34657 12.2256 2.06722 12.7074C2.92763 9.53618 4.78253 6.77954 7.28554 4.7849M8.73818 5.3676C8.90579 4.56078 9.38628 3.84361 10.1349 3.2497C11.934 2.71182 14.0347 2.83508 16.236 3.65311C15.3086 3.82119 14.3811 4.0341 13.4648 4.30305C11.7664 4.81851 10.1573 5.51328 8.68231 6.36492C8.64879 6.02875 8.65996 5.69257 8.73818 5.3564M21.2756 3.31693C21.8008 2.96955 22.2924 2.73423 22.7059 2.64458C23.4769 2.95834 24.2479 3.35055 24.9742 3.85481C23.8121 3.56346 22.5606 3.38417 21.2756 3.31693ZM18.672 1.65847C19.2977 1.7257 19.9682 1.83776 20.6498 1.99464C20.2252 2.22996 19.7782 2.52132 19.3201 2.8687C19.119 2.40926 18.8955 2.00585 18.672 1.65847ZM16.9959 2.27479C16.3031 2.00585 15.6103 1.79294 14.9287 1.64726C15.4762 1.59123 16.0237 1.54641 16.5936 1.54641C16.8618 1.54641 17.1858 1.87138 17.5211 2.47649C17.3534 2.40926 17.1747 2.33082 17.007 2.26358M0 16.6631C0 18.2431 0.223483 19.7783 0.636926 21.2239C0.659274 21.3247 0.681623 21.4144 0.715145 21.5152C0.715145 21.5376 0.726319 21.5488 0.737494 21.5713C2.82706 28.362 9.15162 33.315 16.6048 33.315C20.0576 33.315 23.2646 32.2616 25.9128 30.4463C25.9352 30.4351 25.9687 30.4127 25.9911 30.4015C26.1475 30.2894 26.3039 30.1773 26.4492 30.0653C29.5109 27.8017 31.7569 24.5072 32.7067 20.7084C32.7626 20.5291 32.8073 20.3498 32.8408 20.1705C32.8408 20.1257 32.852 20.0809 32.852 20.0473C33.0755 18.9603 33.1984 17.8173 33.1984 16.6631C33.1984 14.4107 32.7626 12.2368 31.891 10.1749C31.7234 9.7827 31.2764 9.59221 30.8742 9.76029C30.4831 9.92838 30.2931 10.3766 30.4607 10.78C31.2429 12.6402 31.6452 14.6236 31.6452 16.6631C31.6452 17.9069 31.4887 19.1284 31.1982 20.2938C30.9747 21.0222 30.5725 21.7057 30.0138 22.322C30.0249 22.0531 30.0361 21.7954 30.0361 21.5264C30.0361 18.5569 29.2204 15.4192 27.7007 12.4609C28.8181 11.4972 29.5221 10.3094 29.7679 8.98709C29.8461 8.57247 29.5668 8.15786 29.1533 8.07942C28.7287 8.00097 28.3265 8.28112 28.2482 8.69574C28.0806 9.56979 27.6337 10.3766 26.9185 11.0602C26.695 10.6904 26.4715 10.3318 26.2257 9.9732C24.8736 7.97856 23.2534 6.25286 21.4991 4.88575C23.8233 5.04263 25.9799 5.60292 27.7119 6.57783C27.9801 6.73471 28.3488 6.72351 28.5946 6.5106C28.9187 6.24166 28.9634 5.7486 28.6952 5.42363C26.2481 1.92741 21.946 0 16.616 0C7.45315 0 0 7.4743 0 16.6631Z" fill="white"/>
</mask>
<g mask="url(#mask0_559_5146)">
<path d="M33.2207 0H0V33.315H33.2207V0Z" fill="white"/>
</g>
</g>
<defs>
<clipPath id="clip0_559_5146">
<rect width="99.8298" height="92" fill="white"/>
</clipPath>
</defs>
</svg>
