<?xml version="1.0" encoding="UTF-8"?>
<svg id="Layer_2" data-name="Layer 2" xmlns="http://www.w3.org/2000/svg" xmlns:xlink="http://www.w3.org/1999/xlink" viewBox="0 0 268.59 47.36">
  <defs>
    <style>
      .cls-1 {
        fill: none;
      }

      .cls-2 {
        fill: url(#radial-gradient);
      }

      .cls-3 {
        fill: #00aeef;
      }

      .cls-4 {
        fill: #002f54;
      }

      .cls-5 {
        clip-path: url(#clippath);
      }
    </style>
    <clipPath id="clippath">
      <path class="cls-1" d="M29.02,38.73c3.11-.04,6.06-.49,8.67-1.37.66-.22,1.28-.47,1.88-.73-.73,1.78-1.79,3.25-3.18,4.36-2.75,2.02-5.99,3.41-9.5,3.94.88-1.52,1.59-3.67,2.13-6.19M14.39,43.04c-.07-.05-.14-.1-.21-.14-1.22-.6-1.72-3.32-1.08-7.49,2.35,1.06,4.91,1.89,7.6,2.47,2.04.44,4.07.7,6.06.81-.97,4.23-2.22,6.45-3.05,6.45-.05,0-.1,0-.15.02-3.28-.02-6.38-.78-9.16-2.11M3.03,29.56c-.19-.72-.31-1.45-.35-2.19.74,1.04,1.63,2.07,2.7,3.05,1.61,1.49,3.52,2.82,5.66,3.96-.43,2.44-.56,4.64-.28,6.42-3.67-2.78-6.42-6.71-7.72-11.25M30.41,23.64c0-.86-.01-1.72-.04-2.58,2.74-.18,5.28-.89,7.35-2.09,1.92,3.81,2.96,7.82,2.95,11.61,0,1.1-.1,2.14-.27,3.13-.99.61-2.13,1.13-3.41,1.56-2.27.76-4.84,1.18-7.55,1.25.65-3.92.97-8.46.97-12.88M21.15,35.72c-2.73-.59-5.31-1.45-7.64-2.55.77-3.45,2.19-7.63,4.46-12.27.33-.67.66-1.33,1.01-1.98,1.58.71,3.3,1.27,5.11,1.66,1.37.29,2.74.45,4.09.5.02.83.04,1.68.04,2.55,0,5.19-.41,9.49-1.01,12.86-1.97-.08-4-.34-6.04-.78M6.87,28.81c-1.87-1.73-3.16-3.56-3.81-5.38.52-2.04,1.52-4.08,3-6.04,1.4-1.86,3.15-3.53,5.15-4.97.58,1.04,1.39,2.06,2.42,3.03.98.92,2.12,1.75,3.39,2.48-.35.66-.69,1.33-1.02,2.02-1.95,4-3.55,8.3-4.49,12.2-1.74-.98-3.3-2.1-4.63-3.33M28.91,8.34c2.5,1.87,4.8,4.27,6.72,7.08.36.54.71,1.08,1.03,1.62-1.76,1.02-3.99,1.62-6.39,1.8-.2-3.8-.65-7.46-1.37-10.5M24.55,18.43c-1.59-.34-3.11-.83-4.5-1.44,2.05-3.59,4.3-6.72,6.52-9.04.69,2.73,1.27,6.39,1.52,10.94-1.17-.05-2.36-.2-3.53-.45M15.13,13.84c-.91-.85-1.6-1.74-2.07-2.63,2.06-1.24,4.35-2.25,6.78-2.99,1.45-.43,2.91-.76,4.37-.98-2.11,2.36-4.21,5.37-6.14,8.76-1.1-.64-2.09-1.36-2.94-2.15M10.39,6.82c-.03.11-.06.22-.09.34-.22,1.04-.2,2.1.07,3.16-2.37,1.63-4.43,3.57-6.07,5.74-.5.66-.95,1.34-1.35,2.02,1.22-4.51,3.88-8.43,7.45-11.26M12.46,7.62c.24-1.14.93-2.16,1.99-3.01,2.57-.77,5.56-.58,8.71.57-1.32.23-2.65.54-3.95.93-2.43.73-4.72,1.73-6.82,2.94-.05-.48-.03-.96.07-1.43M30.33,4.72c.76-.49,1.45-.82,2.03-.96,1.11.44,2.2,1.01,3.24,1.72-1.67-.42-3.44-.67-5.27-.76M26.62,2.36c.89.1,1.85.25,2.83.48-.61.33-1.25.74-1.9,1.24-.29-.65-.6-1.22-.93-1.72M24.23,3.23c-1-.38-1.98-.68-2.95-.89.78-.09,1.57-.14,2.37-.14.38,0,.84.46,1.32,1.33-.24-.1-.49-.21-.73-.3M0,23.68c0,2.25.32,4.43.91,6.49.04.14.07.28.11.42,0,.03.02.05.03.08,2.99,9.66,12,16.7,22.63,16.7,4.92,0,9.49-1.51,13.28-4.08.04-.02.08-.04.11-.06.23-.15.44-.31.65-.48,4.36-3.22,7.58-7.89,8.93-13.3.08-.25.14-.5.2-.76.01-.06.02-.12.02-.18.32-1.55.49-3.17.49-4.81,0-3.2-.63-6.3-1.86-9.22-.24-.56-.88-.82-1.44-.59-.56.24-.82.88-.59,1.44,1.12,2.65,1.69,5.46,1.69,8.36,0,1.78-.22,3.5-.63,5.16-.33,1.04-.9,2.01-1.69,2.88.02-.38.03-.75.03-1.14,0-4.23-1.16-8.69-3.33-12.88,1.59-1.37,2.6-3.05,2.95-4.94.11-.6-.29-1.17-.88-1.28-.6-.11-1.17.29-1.28.88-.23,1.25-.88,2.39-1.89,3.36-.32-.52-.64-1.04-.99-1.54-1.93-2.83-4.23-5.29-6.74-7.24,3.32.22,6.39,1.02,8.86,2.4.39.22.9.21,1.26-.09.47-.39.53-1.09.14-1.55C37.42,2.74,31.28,0,23.68,0,10.62,0,0,10.62,0,23.68"/>
    </clipPath>
    <radialGradient id="radial-gradient" cx="-187.54" cy="416.02" fx="-187.54" fy="416.02" r=".65" gradientTransform="translate(11437.07 25279.3) scale(60.74 -60.74)" gradientUnits="userSpaceOnUse">
      <stop offset="0" stop-color="#fff"/>
      <stop offset=".06" stop-color="#eaf8fd"/>
      <stop offset=".18" stop-color="#b5e7fa"/>
      <stop offset=".36" stop-color="#60ccf5"/>
      <stop offset=".54" stop-color="#00aeef"/>
      <stop offset="1" stop-color="#002f54"/>
    </radialGradient>
  </defs>
  <g id="Layer_1_copy_2" data-name="Layer 1 copy 2">
    <g>
      <g>
        <path class="cls-4" d="M63.06,8.25v31h-9.73V8.25h9.73Z"/>
        <path class="cls-4" d="M66.38,8.24h21.69v7.46h-11.97v5.02h10.65v7.46h-10.65v11.06h-9.72V8.24Z"/>
        <path class="cls-4" d="M111.55,38.46c-1.81.62-4.5,1.24-6.96,1.24-8.41,0-15.15-5.42-15.15-16.47,0-10.39,7.03-15.58,15.15-15.58,2.68,0,4.28.4,6.89.98v8.17c-1.6-.62-3.23-1.16-4.86-1.16-4.13,0-7.25,2.71-7.25,7.77,0,5.33,2.9,8.03,6.92,8.03,1.78,0,3.48-.44,5.26-1.2v8.21Z"/>
      </g>
      <g>
        <path class="cls-4" d="M212.18,35.12c1.56,0,2.43.76,2.43,2.13,0,1.3-.85,2.07-2.27,2.07h-1v1.99h-1.32v-6.2h2.16ZM211.34,38.26h.79c.77,0,1.15-.34,1.15-1s-.42-1.04-1.2-1.04h-.74v2.04ZM207.59,38.84c0,.91-.35,1.36-1.07,1.36s-1.09-.46-1.09-1.36v-3.71h-1.32v3.63c0,.89.22,1.56.66,2,.41.41,1,.62,1.76.62,1.09,0,2.39-.45,2.39-2.62v-3.63h-1.32v3.71ZM200.51,35.07c1.34,0,2.77.83,2.77,3.16s-1.43,3.14-2.77,3.14-2.78-.82-2.78-3.14,1.43-3.16,2.78-3.16M200.51,40.22c.52,0,1.41-.26,1.41-1.99s-.88-1.99-1.41-1.99c-.91,0-1.41.71-1.41,1.99s.5,1.99,1.41,1.99M196.37,39.44c.22.44.41.83.84.83h.31v1.02h-.04s-.24.07-.64.07c-1.04,0-1.36-.71-1.64-1.35-.23-.52-.43-.97-.97-.97h-.58v2.27h-1.32v-6.2h2.2c1.6,0,2.35.63,2.35,1.97,0,.83-.5,1.35-1,1.56.22.21.36.5.5.78M193.64,38.02h.73c.74,0,1.19-.34,1.19-.89,0-.58-.4-.91-1.09-.91h-.83v1.8ZM188.8,39.06h1.36v.07c0,.4-.14,1.07-1.09,1.07-.89,0-1.43-.74-1.43-1.97s.51-1.99,1.41-1.99c1.06,0,1.1,1.07,1.1,1.12v.07l1.23-.19v-.05c0-.45-.4-2.12-2.35-2.12-1.75,0-2.75,1.15-2.75,3.16s1.04,3.14,2.77,3.14,2.36-1.21,2.36-2.25v-1.08h-2.61v1.02ZM184.85,35.12h-1.57l-2.05,2.79v-2.79h-1.34v6.2h1.34v-2.85l2.1,2.85h1.59l-2.4-3.12,2.33-3.07ZM177.39,38.95l-2.17-3.83h-1.34v6.2h1.32v-3.7l2.16,3.7h1.35v-6.2h-1.32v3.83ZM171.27,35.17l2.26,6.16h-1.37l-.53-1.52h-2.06l-.51,1.52h-1.38l2.28-6.2h1.31l.02.04ZM170.59,36.82l-.67,1.95h1.36l-.69-1.95ZM166.44,38.05c.48.14,1.1.58,1.1,1.51,0,1.12-.79,1.76-2.18,1.76h-2.61v-6.2h2.36c1.34,0,2.02.56,2.02,1.67,0,.85-.39,1.16-.69,1.26M164.97,37.66c.55,0,.81-.23.81-.73,0-.47-.33-.71-.97-.71h-.74v1.44h.9ZM164.07,40.22h1.04c.67,0,.99-.25.99-.8,0-.67-.55-.8-1.02-.8h-1v1.6ZM157.31,35.12c1.93,0,3.08,1.2,3.08,3.2,0,1.9-1.03,2.99-2.82,2.99h-2.1v-6.2h1.84ZM156.79,40.22h.77c.95,0,1.52-.71,1.52-1.92,0-1.39-.6-2.09-1.79-2.09h-.5v4.01ZM152.18,35.12h-1.32v6.2h4v-1.1h-2.68v-5.1ZM149.08,39.44c.22.44.41.83.84.83h.31v1.02h-.04s-.24.07-.64.07c-1.04,0-1.36-.71-1.64-1.35-.23-.52-.43-.97-.98-.97h-.58v2.27h-1.32v-6.2h2.2c1.61,0,2.36.63,2.36,1.97,0,.83-.5,1.35-1,1.56.22.21.36.5.5.78M146.35,38.02h.74c.73,0,1.19-.34,1.19-.89,0-.58-.4-.91-1.09-.91h-.83v1.8ZM141.5,35.07c1.34,0,2.77.83,2.77,3.16s-1.43,3.14-2.77,3.14-2.78-.82-2.78-3.14,1.43-3.16,2.78-3.16M141.5,40.22c.53,0,1.4-.26,1.4-1.99s-.88-1.99-1.4-1.99c-.91,0-1.41.71-1.41,1.99s.5,1.99,1.41,1.99M137.05,35.12h1.49l-1.78,6.2h-1.49l-1.08-3.89-1.1,3.89h-1.49l-1.78-6.2h1.54l1.04,4.52,1.25-4.52h1.11l1.21,4.52,1.08-4.52Z"/>
        <g>
          <path class="cls-3" d="M130.42,6.69h2.51v9.41h-2.51V6.69Z"/>
          <path class="cls-3" d="M134.54,9.07h2.21v1.29h.03c.49-1.01,1.46-1.46,2.56-1.46,1.91,0,2.68,1.35,2.68,2.8v4.38h-2.43v-3.4c0-1.32-.45-1.77-1.12-1.77-1,0-1.51.69-1.51,2.2v2.97h-2.43v-7.03Z"/>
          <path class="cls-3" d="M142.78,9.07h1.43v-1.58l2.38-.74v2.32h1.7v1.7h-1.7v2.59c0,.85.2,1.28.97,1.28.25,0,.5-.05.74-.09l.08,1.58c-.46.05-.92.13-1.53.13-2.17,0-2.7-.96-2.7-2.63v-2.86h-1.39v-1.7Z"/>
          <path class="cls-3" d="M151.37,13.29c.13.97.88,1.35,2.06,1.35.66,0,1.41-.15,2.14-.54v1.71c-.78.31-1.67.45-2.57.45-2.32,0-4.09-1.36-4.09-3.68s1.58-3.67,3.76-3.67c2.6,0,3.55,1.85,3.55,3.94v.44h-4.86ZM154.04,11.92c0-.81-.37-1.47-1.35-1.47-.88,0-1.3.66-1.35,1.47h2.7Z"/>
          <path class="cls-3" d="M162.37,11.02c-.27-.08-.54-.08-.82-.08-1.13,0-1.77.82-1.77,2.2v2.97h-2.43v-7.03h2.21v1.29h.03c.42-.89,1.02-1.46,2.07-1.46.28,0,.58.04.82.08l-.12,2.02Z"/>
          <path class="cls-3" d="M163.44,9.07h2.21v1.29h.03c.49-1.01,1.46-1.46,2.56-1.46,1.91,0,2.68,1.35,2.68,2.8v4.38h-2.43v-3.4c0-1.32-.46-1.77-1.12-1.77-1,0-1.51.69-1.51,2.2v2.97h-2.43v-7.03Z"/>
          <path class="cls-3" d="M176.9,16.1c-.01-.38-.05-.74-.05-1.11h-.02c-.55.88-1.23,1.27-2.23,1.27-1.39,0-2.63-.69-2.63-2.21,0-2.14,2.33-2.4,3.62-2.4.39,0,.82.04,1.13.09-.02-.96-.73-1.21-1.61-1.21-.78,0-1.56.15-2.24.53l-.04-1.64c.87-.35,1.77-.5,2.81-.5,1.79,0,3.34.77,3.34,2.91v2.62c0,.55.03,1.1.14,1.66h-2.23ZM175.22,14.64c.92,0,1.5-.84,1.5-1.66-.31-.01-.66-.04-1.03-.04-.82,0-1.47.26-1.47.93,0,.48.43.77.99.77Z"/>
          <path class="cls-3" d="M179.79,9.07h1.42v-1.58l2.39-.74v2.32h1.7v1.7h-1.7v2.59c0,.85.2,1.28.97,1.28.24,0,.5-.05.74-.09l.08,1.58c-.46.05-.91.13-1.53.13-2.17,0-2.7-.96-2.7-2.63v-2.86h-1.38v-1.7Z"/>
          <path class="cls-3" d="M188.97,7.93h-2.43v-1.78h2.43v1.78ZM186.54,9.07h2.43v7.03h-2.43v-7.03Z"/>
          <path class="cls-3" d="M190.28,12.59c0-2.33,1.77-3.68,4.09-3.68s4.09,1.35,4.09,3.68-1.77,3.67-4.09,3.67-4.09-1.35-4.09-3.67ZM195.95,12.59c0-1.05-.46-1.98-1.58-1.98s-1.57.93-1.57,1.98.46,1.97,1.57,1.97,1.58-.93,1.58-1.97Z"/>
          <path class="cls-3" d="M199.49,9.07h2.21v1.29h.02c.48-1.01,1.46-1.46,2.56-1.46,1.92,0,2.68,1.35,2.68,2.8v4.38h-2.43v-3.4c0-1.32-.45-1.77-1.12-1.77-1,0-1.51.69-1.51,2.2v2.97h-2.43v-7.03Z"/>
          <path class="cls-3" d="M212.95,16.1c-.01-.38-.05-.74-.05-1.11h-.03c-.55.88-1.22,1.27-2.22,1.27-1.39,0-2.63-.69-2.63-2.21,0-2.14,2.33-2.4,3.63-2.4.39,0,.82.04,1.13.09-.01-.96-.73-1.21-1.61-1.21-.78,0-1.56.15-2.23.53l-.04-1.64c.87-.35,1.77-.5,2.8-.5,1.79,0,3.34.77,3.34,2.91v2.62c0,.55.03,1.1.13,1.66h-2.22ZM211.28,14.64c.92,0,1.5-.84,1.5-1.66-.31-.01-.66-.04-1.02-.04-.82,0-1.47.26-1.47.93,0,.48.43.77,1,.77Z"/>
          <path class="cls-3" d="M216.74,5.99h2.43v10.11h-2.43V5.99Z"/>
          <path class="cls-3" d="M130.43,19.47h6.29v1.78h-3.79v2.06h3.63v1.78h-3.63v3.79h-2.51v-9.41Z"/>
          <path class="cls-3" d="M140.45,20.71h-2.43v-1.78h2.43v1.78ZM138.02,21.86h2.43v7.02h-2.43v-7.02Z"/>
          <path class="cls-3" d="M142.11,21.86h2.21v1.3h.03c.48-1.01,1.46-1.46,2.56-1.46,1.92,0,2.69,1.35,2.69,2.81v4.38h-2.43v-3.4c0-1.32-.46-1.76-1.12-1.76-1,0-1.51.69-1.51,2.2v2.97h-2.43v-7.02Z"/>
          <path class="cls-3" d="M155.56,28.88c-.01-.38-.05-.74-.05-1.11h-.03c-.55.88-1.23,1.27-2.23,1.27-1.39,0-2.63-.69-2.63-2.21,0-2.14,2.33-2.4,3.63-2.4.39,0,.82.04,1.13.09-.02-.96-.73-1.21-1.61-1.21-.78,0-1.56.15-2.24.53l-.04-1.65c.86-.35,1.77-.5,2.8-.5,1.79,0,3.35.77,3.35,2.91v2.61c0,.55.02,1.11.13,1.66h-2.23ZM153.89,27.43c.92,0,1.5-.83,1.5-1.66-.31-.01-.66-.04-1.03-.04-.82,0-1.47.26-1.47.93,0,.49.43.77,1,.77Z"/>
          <path class="cls-3" d="M159.07,21.86h2.21v1.3h.03c.49-1.01,1.46-1.46,2.56-1.46,1.92,0,2.68,1.35,2.68,2.81v4.38h-2.43v-3.4c0-1.32-.46-1.76-1.12-1.76-1,0-1.51.69-1.51,2.2v2.97h-2.43v-7.02Z"/>
          <path class="cls-3" d="M173.42,23.87c-.44-.27-.89-.39-1.47-.39-1.05,0-1.86.73-1.86,1.94,0,1.12.94,1.85,2,1.85.55,0,1.1-.12,1.51-.34l.05,1.81c-.61.2-1.33.31-1.98.31-2.32,0-4.09-1.35-4.09-3.67s1.77-3.68,4.09-3.68c.73,0,1.38.12,1.93.39l-.18,1.78Z"/>
          <path class="cls-3" d="M176.65,26.08c.13.97.88,1.35,2.06,1.35.66,0,1.41-.15,2.14-.54v1.71c-.78.31-1.67.44-2.57.44-2.32,0-4.09-1.36-4.09-3.68s1.58-3.67,3.76-3.67c2.6,0,3.54,1.85,3.54,3.94v.45h-4.85ZM179.32,24.7c0-.81-.38-1.47-1.35-1.47-.87,0-1.29.66-1.34,1.47h2.69Z"/>
          <path class="cls-3" d="M194.59,28.67c-.71.17-1.51.38-2.79.38-2.51,0-5.4-1.27-5.4-4.83,0-3.28,2.29-4.91,5.39-4.91.96,0,1.89.22,2.79.49l-.2,2.03c-.81-.44-1.59-.66-2.46-.66-1.78,0-2.94,1.29-2.94,3.05,0,1.85,1.31,2.97,3.14,2.97.82,0,1.66-.22,2.35-.49l.12,1.97Z"/>
          <path class="cls-3" d="M195.14,25.38c0-2.33,1.77-3.68,4.09-3.68s4.08,1.35,4.08,3.68-1.77,3.67-4.08,3.67-4.09-1.35-4.09-3.67ZM200.81,25.38c0-1.05-.46-1.98-1.58-1.98s-1.58.93-1.58,1.98.46,1.97,1.58,1.97,1.58-.93,1.58-1.97Z"/>
          <path class="cls-3" d="M209.37,23.8c-.27-.08-.54-.08-.83-.08-1.13,0-1.76.82-1.76,2.2v2.97h-2.43v-7.02h2.21v1.3h.03c.42-.89,1.02-1.46,2.08-1.46.28,0,.58.04.82.08l-.12,2.02Z"/>
          <path class="cls-3" d="M210.28,21.86h2.23v1.27h.03c.49-.98,1.51-1.43,2.62-1.43,1.94,0,3.01,1.85,3.01,3.55,0,2.07-1.12,3.8-3.21,3.8-.85,0-1.77-.31-2.22-1.15h-.03v3.82h-2.42v-9.86ZM214.18,23.56c-.89,0-1.48.78-1.48,1.83s.68,1.79,1.48,1.79c.92,0,1.47-.77,1.47-1.89,0-.93-.53-1.74-1.47-1.74Z"/>
          <path class="cls-3" d="M218.86,25.38c0-2.33,1.77-3.68,4.09-3.68s4.09,1.35,4.09,3.68-1.77,3.67-4.09,3.67-4.09-1.35-4.09-3.67ZM224.52,25.38c0-1.05-.46-1.98-1.58-1.98s-1.58.93-1.58,1.98.46,1.97,1.58,1.97,1.58-.93,1.58-1.97Z"/>
          <path class="cls-3" d="M233.08,23.8c-.27-.08-.54-.08-.82-.08-1.13,0-1.77.82-1.77,2.2v2.97h-2.43v-7.02h2.21v1.3h.03c.42-.89,1.03-1.46,2.08-1.46.28,0,.58.04.82.08l-.12,2.02Z"/>
          <path class="cls-3" d="M238.52,28.88c-.01-.38-.05-.74-.05-1.11h-.03c-.55.88-1.23,1.27-2.23,1.27-1.39,0-2.63-.69-2.63-2.21,0-2.14,2.33-2.4,3.62-2.4.39,0,.83.04,1.13.09-.01-.96-.72-1.21-1.6-1.21-.78,0-1.57.15-2.24.53l-.04-1.65c.86-.35,1.77-.5,2.81-.5,1.79,0,3.34.77,3.34,2.91v2.61c0,.55.03,1.11.13,1.66h-2.22ZM236.85,27.43c.92,0,1.49-.83,1.49-1.66-.31-.01-.66-.04-1.02-.04-.82,0-1.47.26-1.47.93,0,.49.43.77,1,.77Z"/>
          <path class="cls-3" d="M241.4,21.86h1.43v-1.57l2.38-.74v2.32h1.7v1.7h-1.7v2.59c0,.85.2,1.28.97,1.28.24,0,.5-.06.74-.1l.08,1.58c-.46.05-.92.13-1.52.13-2.17,0-2.7-.96-2.7-2.63v-2.86h-1.39v-1.7Z"/>
          <path class="cls-3" d="M250.58,20.71h-2.43v-1.78h2.43v1.78ZM248.16,21.86h2.43v7.02h-2.43v-7.02Z"/>
          <path class="cls-3" d="M251.9,25.38c0-2.33,1.76-3.68,4.09-3.68s4.08,1.35,4.08,3.68-1.77,3.67-4.08,3.67-4.09-1.35-4.09-3.67ZM257.57,25.38c0-1.05-.46-1.98-1.58-1.98s-1.58.93-1.58,1.98.46,1.97,1.58,1.97,1.58-.93,1.58-1.97Z"/>
          <path class="cls-3" d="M261.11,21.86h2.21v1.3h.03c.49-1.01,1.46-1.46,2.56-1.46,1.92,0,2.68,1.35,2.68,2.81v4.38h-2.43v-3.4c0-1.32-.46-1.76-1.12-1.76-1,0-1.51.69-1.51,2.2v2.97h-2.43v-7.02Z"/>
        </g>
      </g>
      <path class="cls-4" d="M121.59,41.5c-.23,0-.42-.19-.42-.42V6.28c0-.23.19-.42.42-.42s.42.19.42.42v34.8c0,.23-.19.42-.42.42Z"/>
      <g class="cls-5">
        <rect class="cls-2" width="47.36" height="47.36"/>
      </g>
    </g>
  </g>
</svg>