<?xml version="1.0" encoding="UTF-8"?>
<svg id="Layer_1" xmlns="http://www.w3.org/2000/svg" xmlns:xlink="http://www.w3.org/1999/xlink" version="1.1" viewBox="0 0 206 94">
  <!-- Generator: Adobe Illustrator 29.7.1, SVG Export Plug-In . SVG Version: 2.1.1 Build 8)  -->
  <defs>
    <style>
      .st0 {
        fill: none;
      }

      .st1 {
        fill: #e30713;
      }

      .st2 {
        clip-path: url(#clippath);
      }
    </style>
    <clipPath id="clippath">
      <rect class="st0" width="206" height="94"/>
    </clipPath>
  </defs>
  <g class="st2">
    <g>
      <path d="M39.4,8.7c.4.3.9.4,1.5.4s.8-.1,1.1-.3c.3-.2.4-.6.4-1.1,0-.3-.2-.6-.5-.9,0,0-.2-.1-.2-.2,0,0-.2-.1-.3-.2,0,0-.2-.1-.3-.2l-.3-.2c-.1,0-.2-.1-.3-.2,0,0-.2-.1-.3-.2,0,0-.2-.1-.3-.2,0,0-.2-.1-.2-.2-.3-.3-.5-.6-.5-1.1,0-.6.2-1,.6-1.3.4-.3.9-.5,1.5-.5,0,0,.2,0,.3,0,.1,0,.2,0,.3,0,.3,0,.5.1.7.2v.6c-.5-.2-.9-.3-1.4-.3s-.3,0-.5,0c-.2,0-.3.1-.5.2-.1,0-.3.2-.3.4,0,.2-.1.4-.1.6s0,.3.1.5c0,.1.2.3.4.4.1.1.3.2.5.3,0,0,.2.1.3.2,0,0,.2.1.3.2.4.2.8.5,1.1.8,0,0,.1.2.2.2,0,0,.1.2.2.3,0,.2.1.4.1.7,0,.7-.3,1.2-.7,1.5-.5.3-1,.5-1.5.5-.7,0-1.2-.1-1.6-.3v-.7c0,0,0,0,0,0Z"/>
      <path d="M48.5,5.2c-.3-.2-.7-.2-1.1-.3-.6,0-1.1.2-1.4.6-.3.4-.5.9-.5,1.5s.2,1.1.5,1.5c.3.4.8.6,1.3.6.4,0,.8,0,1.1-.2v.6c-.3.1-.8.2-1.2.2-.8,0-1.4-.3-1.8-.8-.4-.5-.6-1.1-.6-1.9,0-.8.2-1.5.7-1.9.4-.5,1-.7,1.8-.7.3,0,.6,0,.8,0,.1,0,.2,0,.3,0,0,0,0,0,0,0,0,0,0,0,0,0v.6s0,0,0,0Z"/>
      <path d="M50.4,2.1h.6v3.2h0c.1-.3.3-.5.6-.7.3-.2.6-.3,1-.3.7,0,1.1.2,1.4.6.2.4.4.9.3,1.6v3h-.6v-3c0-.1,0-.2,0-.3,0-.1,0-.2,0-.3,0,0,0-.2,0-.3,0,0,0-.2-.1-.2-.2-.3-.5-.5-1-.5-.5,0-.9.2-1.2.6-.2.4-.3.9-.3,1.3v2.7h-.6V2.1h0Z"/>
      <path d="M61.9,9.6h-.8l-1.4-4.4h0l-1.4,4.4h-.8l-1.6-5.1h.7l1.3,4.4h0l1.4-4.4h.8l1.3,4.4h0l1.4-4.4h.6l-1.7,5.1Z"/>
      <path d="M68.5,9.4c-.5.2-1,.3-1.5.3-.8,0-1.4-.3-1.8-.8-.4-.5-.5-1.1-.5-1.9,0-.8.2-1.4.6-1.9.4-.5.9-.7,1.5-.7.7,0,1.2.3,1.5.7.3.5.5,1.1.5,1.8v.3h-3.5c0,.6.1,1,.4,1.4.3.4.7.6,1.2.6.3,0,.5,0,.8-.1.1,0,.3,0,.4-.1.1,0,.2,0,.3-.1v.6h0ZM68.2,6.7c0-.5,0-.9-.3-1.2-.2-.4-.5-.5-1-.5-.4,0-.8.2-1.1.6-.3.4-.4.8-.4,1.2h2.8,0Z"/>
      <path d="M71.5,3.1h-.6v-.8h.6v.8ZM70.9,4.5h.6v5.1h-.6v-5.1Z"/>
      <path d="M73.4,9l3-4h-2.9v-.5h3.6v.5l-3,4h3v.5h-3.8v-.5h0Z"/>
      <path d="M82.4,9.4c-.5.2-1,.3-1.5.3-.8,0-1.4-.3-1.8-.8-.4-.5-.5-1.1-.5-1.9,0-.8.2-1.4.6-1.9.4-.5.9-.7,1.5-.7.7,0,1.2.3,1.5.7.3.5.5,1.1.5,1.8v.3h-3.5c0,.6.1,1,.4,1.4.3.4.7.6,1.2.6.3,0,.5,0,.8-.1.1,0,.3,0,.4-.1.1,0,.2,0,.3-.1v.6h0ZM82.1,6.7c0-.5,0-.9-.3-1.2-.2-.4-.5-.5-1-.5-.4,0-.8.2-1.1.6-.3.4-.4.8-.4,1.2h2.8,0Z"/>
      <path d="M84.7,5.6c0-.2,0-.4,0-.6,0-.2,0-.4,0-.5h.6v1h0c.1-.3.3-.6.5-.8.2-.2.5-.3.8-.3.2,0,.3,0,.4,0v.7c-.1,0-.3,0-.5,0-.2,0-.4,0-.6.2-.2.1-.3.3-.4.5,0,.2-.2.4-.2.6,0,.2,0,.5,0,.7v2.5h-.6v-3.9Z"/>
      <path d="M89.4,3.1h-.6v-.8h.6v.8ZM88.8,4.5h.6v5.1h-.6v-5.1Z"/>
      <path d="M91.4,8.8c.4.2.8.3,1.3.3.3,0,.6,0,.8-.2.2-.1.3-.4.3-.7,0-.3-.1-.5-.4-.7-.2-.2-.5-.3-.8-.4,0,0-.1,0-.2-.1h-.2c-.1-.2-.3-.3-.4-.4,0,0-.1-.1-.2-.2,0,0,0-.1-.1-.2,0-.1-.1-.3-.1-.5,0-.5.2-.9.5-1.1.3-.2.7-.3,1.1-.3s.2,0,.3,0c0,0,.2,0,.3,0,.2,0,.5.1.7.2v.5c-.4-.2-.8-.2-1.2-.2-.3,0-.6,0-.8.2-.1,0-.2.1-.2.2,0,.1,0,.3,0,.4s0,.2.1.3c0,0,.2.2.3.2,0,0,.1,0,.2.1,0,0,.1,0,.2.1,0,0,.1,0,.2.1,0,0,.1,0,.2.1.3.1.6.3.9.6.2.2.4.5.4,1,0,.3,0,.5-.2.7-.1.2-.2.3-.4.4-.4.2-.8.3-1.2.3s-1,0-1.4-.2v-.6c0,0,0,0,0,0Z"/>
      <path d="M99.7,5.2c-.3-.2-.7-.2-1.1-.3-.6,0-1.1.2-1.4.6-.3.4-.5.9-.5,1.5s.2,1.1.5,1.5c.3.4.8.6,1.3.6.4,0,.8,0,1.1-.2v.6c-.3.1-.8.2-1.2.2-.8,0-1.4-.3-1.8-.8-.4-.5-.6-1.1-.6-1.9,0-.8.2-1.5.7-1.9.4-.5,1-.7,1.8-.7.3,0,.6,0,.8,0,.1,0,.2,0,.3,0,0,0,0,0,0,0,0,0,0,0,0,0v.6s0,0,0,0Z"/>
      <path d="M101.6,2.1h.6v3.2h0c.1-.3.3-.5.6-.7.3-.2.6-.3,1-.3.7,0,1.1.2,1.4.6.2.4.4.9.3,1.6v3h-.6v-3c0-.1,0-.2,0-.3,0-.1,0-.2,0-.3,0,0,0-.2,0-.3,0,0,0-.2-.1-.2-.2-.3-.5-.5-1-.5-.5,0-.9.2-1.2.6-.2.4-.3.9-.3,1.3v2.7h-.6V2.1h0Z"/>
      <path d="M111.2,9.4c-.5.2-1,.3-1.5.3-.8,0-1.4-.3-1.8-.8-.4-.5-.5-1.1-.5-1.9,0-.8.2-1.4.6-1.9.4-.5.9-.7,1.5-.7.7,0,1.2.3,1.5.7.3.5.5,1.1.5,1.8v.3h-3.5c0,.6.1,1,.4,1.4.3.4.7.6,1.2.6.3,0,.5,0,.8-.1.1,0,.3,0,.4-.1.1,0,.2,0,.3-.1v.6h0ZM110.9,6.7c0-.5,0-.9-.3-1.2-.2-.4-.5-.5-1-.5-.5,0-.8.2-1.1.6-.3.4-.4.8-.4,1.2h2.8,0Z"/>
      <path d="M117.1,2.6h3.4v.6h-2.7v2.5h2.6v.6h-2.6v2.7h2.8v.6h-3.5V2.6Z"/>
      <path d="M123.4,3.1h-.6v-.8h.6v.8ZM122.8,4.5h.6v5.1h-.6v-5.1Z"/>
      <path d="M129.8,9.6h-.6v-.8h0c-.3.6-.9.9-1.6.9-.7,0-1.2-.3-1.6-.8-.3-.5-.5-1.1-.5-1.9,0-.8.2-1.4.5-1.9.3-.5.9-.7,1.6-.7.2,0,.5,0,.7.1,0,0,.2,0,.3.1,0,0,.2.1.2.2.3.2.4.4.4.6h0v-3.3h.6v7.5ZM126.1,7c0,.3,0,.5,0,.7,0,.3.1.5.2.7.1.2.3.4.5.5.2.1.4.2.7.2s.5,0,.7-.2c.2-.1.3-.3.5-.5.2-.4.3-.9.3-1.4,0-.1,0-.2,0-.4,0-.1,0-.2,0-.4,0-.2-.1-.5-.3-.7-.1-.2-.3-.4-.5-.5-.2-.1-.4-.2-.7-.2s-.5,0-.7.2c-.2.1-.3.3-.5.5-.1.2-.2.4-.2.7,0,.1,0,.3,0,.4,0,.1,0,.3,0,.4h0Z"/>
      <path d="M136,9.1c0,.7-.2,1.3-.5,1.8-.4.5-1,.8-1.8.8-.2,0-.3,0-.5,0-.2,0-.3,0-.4,0-.1,0-.2,0-.3,0-.1,0-.2,0-.3,0v-.6c.5.2,1,.4,1.5.4.4,0,.7,0,.9-.2.2-.1.4-.3.5-.6.1-.2.2-.5.2-.8,0-.2,0-.3,0-.5,0-.2,0-.3,0-.5h0c-.4.7-.9,1-1.5,1-.8,0-1.3-.3-1.7-.9,0-.1-.2-.3-.2-.4,0-.1,0-.3-.1-.4,0-.3-.1-.6-.1-.9,0-.8.2-1.4.5-1.9.3-.5.9-.7,1.6-.7.3,0,.6,0,.9.1.2,0,.5.3.7.6h0v-.6h.6v4.7h0ZM132.4,7c0,.5.1,1,.3,1.4.2.4.6.6,1.1.6.6,0,1-.2,1.2-.7.2-.4.3-.9.3-1.3s-.1-1.1-.3-1.5c-.2-.4-.6-.6-1.2-.6-.3,0-.5,0-.7.2-.2.1-.3.3-.5.5-.1.2-.2.4-.2.7,0,.1,0,.3,0,.4,0,.1,0,.3,0,.4h0Z"/>
      <path d="M141.7,9.4c-.5.2-1,.3-1.5.3-.8,0-1.4-.3-1.8-.8-.4-.5-.5-1.1-.5-1.9,0-.8.2-1.4.6-1.9.4-.5.9-.7,1.5-.7.7,0,1.2.3,1.5.7.3.5.5,1.1.5,1.8v.3h-3.5c0,.6.1,1,.4,1.4.3.4.7.6,1.2.6.3,0,.5,0,.8-.1.1,0,.3,0,.4-.1.1,0,.2,0,.3-.1v.6h0ZM141.4,6.7c0-.5,0-.9-.3-1.2-.2-.4-.5-.5-1-.5-.4,0-.8.2-1.1.6-.3.4-.4.8-.4,1.2h2.8,0Z"/>
      <path d="M144,5.7c0-.2,0-.4,0-.6,0-.2,0-.4,0-.6h.6v.9h0c0-.1.1-.2.2-.4,0-.1.2-.2.3-.3.1-.1.3-.2.5-.2.2,0,.4,0,.7,0,.6,0,1.1.2,1.3.6.3.4.4.8.4,1.4v3.2h-.6v-3.1c0-.5,0-.9-.3-1.2-.2-.3-.5-.4-.9-.4-.5,0-.9.2-1.2.6-.1.2-.2.4-.2.6,0,.2,0,.5,0,.7v2.8h-.6v-3.9h0Z"/>
      <path d="M149.9,7c0-.7.2-1.3.6-1.9.4-.5,1-.8,1.8-.8.8,0,1.4.3,1.8.8.4.5.6,1.1.6,1.9s-.2,1.3-.6,1.8c-.4.5-1,.8-1.8.8-.8,0-1.4-.3-1.8-.8-.4-.5-.6-1.1-.6-1.8ZM150.6,7c0,.6.1,1.1.4,1.5.3.4.7.6,1.2.6.6,0,1-.2,1.3-.6.3-.4.4-.9.4-1.5s-.1-1.1-.4-1.5c-.3-.4-.7-.6-1.3-.6-.5,0-1,.2-1.2.6-.3.4-.4.9-.4,1.5Z"/>
      <path d="M156.2,8.8c.4.2.8.3,1.3.3.3,0,.6,0,.8-.2.2-.1.3-.4.3-.7,0-.3-.1-.5-.4-.7-.2-.2-.5-.3-.8-.4,0,0-.1,0-.2-.1h-.2c-.1-.2-.3-.3-.4-.4,0,0-.1-.1-.2-.2,0,0,0-.1-.1-.2,0-.1-.1-.3-.1-.5,0-.5.2-.9.5-1.1.3-.2.7-.3,1.1-.3s.2,0,.3,0c0,0,.2,0,.3,0,.2,0,.5.1.7.2v.5c-.4-.2-.8-.2-1.2-.2-.3,0-.6,0-.8.2-.1,0-.2.1-.2.2,0,.1,0,.3,0,.4s0,.2.1.3c0,0,.2.2.3.2,0,0,.1,0,.2.1,0,0,.1,0,.2.1,0,0,.1,0,.2.1,0,0,.1,0,.2.1.3.1.6.3.9.6.2.2.4.5.4,1,0,.3,0,.5-.2.7-.1.2-.2.3-.4.4-.4.2-.8.3-1.2.3s-1,0-1.4-.2v-.6c0,0,0,0,0,0Z"/>
      <path d="M160.8,8.8c.4.2.8.3,1.3.3.3,0,.6,0,.8-.2.2-.1.3-.4.3-.7,0-.3-.1-.5-.4-.7-.2-.2-.5-.3-.8-.4,0,0-.1,0-.2-.1h-.2c-.1-.2-.3-.3-.4-.4,0,0-.1-.1-.2-.2,0,0,0-.1-.1-.2,0-.1-.1-.3-.1-.5,0-.5.2-.9.5-1.1.3-.2.7-.3,1.1-.3s.2,0,.3,0c0,0,.2,0,.3,0,.2,0,.5.1.7.2v.5c-.4-.2-.8-.2-1.2-.2-.3,0-.6,0-.8.2-.1,0-.2.1-.2.2,0,.1,0,.3,0,.4s0,.2.1.3c0,0,.2.2.3.2,0,0,.1,0,.2.1,0,0,.1,0,.2.1,0,0,.1,0,.2.1,0,0,.1,0,.2.1.3.1.6.3.9.6.2.2.4.5.4,1,0,.3,0,.5-.2.7-.1.2-.2.3-.4.4-.4.2-.8.3-1.2.3s-1,0-1.4-.2v-.6c0,0,0,0,0,0Z"/>
      <path d="M169.2,9.4c-.5.2-1,.3-1.5.3-.8,0-1.4-.3-1.8-.8-.4-.5-.5-1.1-.5-1.9,0-.8.2-1.4.6-1.9.4-.5.9-.7,1.5-.7.7,0,1.2.3,1.5.7.3.5.5,1.1.5,1.8v.3h-3.5c0,.6.1,1,.4,1.4.3.4.7.6,1.2.6.3,0,.5,0,.8-.1.1,0,.3,0,.4-.1.1,0,.2,0,.3-.1v.6h0ZM168.9,6.7c0-.5,0-.9-.3-1.2-.2-.4-.5-.5-1-.5-.4,0-.8.2-1.1.6-.3.4-.4.8-.4,1.2h2.8,0Z"/>
      <path d="M171.6,5.7c0-.2,0-.4,0-.6,0-.2,0-.4,0-.6h.6v.9h0c0-.1.1-.2.2-.4,0-.1.2-.2.3-.3.1-.1.3-.2.5-.2.2,0,.4,0,.7,0,.6,0,1.1.2,1.3.6.3.4.4.8.4,1.4v3.2h-.6v-3.1c0-.5,0-.9-.3-1.2-.2-.3-.5-.4-.9-.4-.5,0-.9.2-1.2.6-.1.2-.2.4-.2.6,0,.2,0,.5,0,.7v2.8h-.6v-3.9h0Z"/>
      <path d="M177.4,8.8c.4.2.8.3,1.3.3.3,0,.6,0,.8-.2.2-.1.3-.4.3-.7,0-.3-.1-.5-.4-.7-.2-.2-.5-.3-.8-.4,0,0-.1,0-.2-.1h-.2c-.1-.2-.3-.3-.4-.4,0,0-.1-.1-.2-.2,0,0,0-.1-.1-.2,0-.1-.1-.3-.1-.5,0-.5.2-.9.5-1.1.3-.2.7-.3,1.1-.3s.2,0,.3,0c0,0,.2,0,.3,0,.2,0,.5.1.7.2v.5c-.4-.2-.8-.2-1.2-.2-.3,0-.6,0-.8.2-.1,0-.2.1-.2.2,0,.1,0,.3,0,.4s0,.2.1.3c0,0,.2.2.3.2,0,0,.1,0,.2.1,0,0,.1,0,.2.1,0,0,.1,0,.2.1,0,0,.1,0,.2.1.3.1.6.3.9.6.2.2.4.5.4,1,0,.3,0,.5-.2.7-.1.2-.2.3-.4.4-.4.2-.8.3-1.2.3s-1,0-1.4-.2v-.6c0,0,0,0,0,0Z"/>
      <path d="M185.7,5.2c-.3-.2-.7-.2-1.1-.3-.6,0-1.1.2-1.4.6-.3.4-.5.9-.5,1.5s.2,1.1.5,1.5c.3.4.8.6,1.3.6.4,0,.8,0,1.1-.2v.6c-.3.1-.8.2-1.2.2-.8,0-1.4-.3-1.8-.8-.4-.5-.6-1.1-.6-1.9,0-.8.2-1.5.7-1.9.4-.5,1-.7,1.8-.7.3,0,.6,0,.8,0,0,0,.2,0,.3,0,0,0,0,0,0,0,0,0,0,0,0,0v.6s0,0,0,0Z"/>
      <path d="M187.6,2.1h.6v3.2h0c.1-.3.3-.5.6-.7.3-.2.6-.3,1-.3.7,0,1.1.2,1.4.6.2.4.4.9.3,1.6v3h-.6v-3c0-.1,0-.2,0-.3,0-.1,0-.2,0-.3,0,0,0-.2,0-.3,0,0,0-.2-.1-.2-.2-.3-.5-.5-1-.5-.5,0-.9.2-1.2.6-.2.4-.3.9-.3,1.3v2.7h-.6V2.1h0Z"/>
      <path d="M196.8,8.7h0c-.2.3-.4.5-.7.7-.3.2-.6.2-.9.2-.4,0-.6,0-.9-.2-.2,0-.4-.2-.5-.4-.2-.3-.3-.6-.3-.9,0-.4,0-.8.3-1,.2-.2.4-.4.8-.5.2,0,.3-.1.5-.1.2,0,.3,0,.5,0,.4,0,.7,0,1,0h.1v-.3c0-.9-.4-1.3-1.1-1.3-.5,0-1,.1-1.5.4v-.6c.5-.2,1-.3,1.5-.3,1.2,0,1.8.6,1.8,1.9v2.2c0,.2,0,.4,0,.6,0,.2,0,.3,0,.5h-.6v-.8h0ZM196.7,7h-.2c-.1,0-.3,0-.4,0-.1,0-.3,0-.4,0-.1,0-.3,0-.4,0-.1,0-.2,0-.4.1-.2,0-.4.2-.6.4-.2.2-.2.4-.2.7s.1.6.3.7c.2.1.4.2.7.2s.7,0,.9-.2c.2-.1.4-.3.4-.5.1-.2.2-.4.2-.6,0-.1,0-.2,0-.3,0,0,0-.2,0-.2v-.3h0Z"/>
      <path d="M200,5h-1v-.5h1v-.4c0-.1,0-.3,0-.4,0-.1,0-.3,0-.4,0-.3,0-.5.1-.7,0-.2.2-.4.4-.5.2-.1.4-.2.7-.2h.2c0,0,.1,0,.2,0,.1,0,.2,0,.3,0v.6c-.2,0-.3-.1-.5-.1s-.4,0-.5.1c-.1.1-.2.2-.2.4,0,.2,0,.3,0,.5,0,0,0,.2,0,.3v.7h1.1v.5h-1.1v4.5h-.6v-4.5h0Z"/>
      <path d="M205.9,5h-1.1v3.3c0,.2,0,.4.2.6.1.2.3.2.5.2s.4,0,.6-.1v.5s-.1,0-.3,0c-.2,0-.3,0-.5,0-.3,0-.5,0-.6-.1-.1,0-.3-.2-.3-.4,0-.2-.1-.3-.1-.5,0-.2,0-.4,0-.6v-3h-1v-.5h1v-1.2l.6-.2v1.4h1.1v.5h0Z"/>
      <path d="M44.3,17.1c-.2-.1-.5-.2-.7-.2-.1,0-.3,0-.4,0-.1,0-.3,0-.4,0-.9,0-1.6.3-2.1.8-.5.6-.7,1.3-.7,2.2s.2,1.6.7,2.2c.5.6,1.2.8,2.1.8.1,0,.2,0,.4,0,.1,0,.3,0,.4,0,.3,0,.5-.1.7-.2v.6c0,0-.2,0-.3.1-.1,0-.3,0-.4,0-.2,0-.3,0-.4,0-.1,0-.3,0-.4,0-1.1,0-1.9-.3-2.6-1-.6-.6-.9-1.5-.9-2.6,0-1.1.3-2,.9-2.6.6-.7,1.5-1,2.5-1,.1,0,.2,0,.4,0,.1,0,.3,0,.4,0,.3,0,.6.1.8.2v.6s0,0,0,0Z"/>
      <path d="M46.5,20.8c0-.7.2-1.3.6-1.9.4-.5,1-.8,1.8-.8.8,0,1.4.3,1.8.8.4.5.6,1.1.6,1.9s-.2,1.3-.6,1.8c-.4.5-1,.8-1.8.8-.8,0-1.4-.3-1.8-.8-.4-.5-.6-1.1-.6-1.8ZM47.2,20.8c0,.6.1,1.1.4,1.5.3.4.7.6,1.2.6.6,0,1-.2,1.3-.6.3-.4.4-.9.4-1.5s-.1-1.1-.4-1.5c-.3-.4-.7-.6-1.3-.6-.5,0-1,.2-1.2.6-.3.4-.4.9-.4,1.5Z"/>
      <path d="M53.2,19.4c0-.2,0-.4,0-.6,0-.2,0-.4,0-.6h.6v.9h0c0-.1.1-.2.2-.4,0-.1.2-.2.3-.3.1-.1.3-.2.5-.2.2,0,.4,0,.7,0,.6,0,1.1.2,1.3.6.3.4.4.8.4,1.4v3.2h-.6v-3.1c0-.5,0-.9-.3-1.2-.2-.3-.5-.4-.9-.4-.5,0-.9.2-1.2.6-.1.2-.2.4-.2.6,0,.2,0,.5,0,.7v2.8h-.6v-3.9h0Z"/>
      <path d="M59.9,18.8h-1v-.5h1v-.4c0-.1,0-.3,0-.4,0-.1,0-.3,0-.4,0-.3,0-.5.1-.7,0-.2.2-.4.4-.5.2-.1.4-.2.7-.2h.2c0,0,.1,0,.2,0,.1,0,.2,0,.3,0v.5c-.2,0-.3-.1-.5-.1s-.4,0-.5.1c-.1.1-.2.2-.2.4,0,.2,0,.3,0,.5,0,0,0,.2,0,.3v.7h1.1v.5h-1.1v4.5h-.6v-4.5h0Z"/>
      <path d="M66.9,23.2c-.5.2-1,.3-1.5.3-.8,0-1.4-.3-1.8-.8-.4-.5-.5-1.1-.5-1.9,0-.8.2-1.4.6-1.9.4-.5.9-.7,1.5-.7.7,0,1.2.3,1.5.7.3.5.5,1.1.5,1.8v.3h-3.5c0,.6.1,1,.4,1.4.3.4.7.6,1.2.6.3,0,.5,0,.8-.1.1,0,.3,0,.4-.1.1,0,.2,0,.3-.1v.6h0ZM66.6,20.4c0-.5,0-.9-.3-1.2-.2-.4-.5-.5-1-.5-.4,0-.8.2-1.1.6-.3.4-.4.8-.4,1.2h2.8,0ZM65.6,16.2h.8l-1.2,1.4h-.5l.9-1.4h0Z"/>
      <path d="M73.2,23.3h-.6v-.8h0c-.3.6-.9.9-1.6.9-.7,0-1.2-.3-1.6-.8-.3-.5-.5-1.1-.5-1.9,0-.8.2-1.4.5-1.9.3-.5.9-.7,1.6-.7.2,0,.5,0,.7.1,0,0,.2,0,.3.1,0,0,.2.1.2.2.3.2.4.4.4.6h0v-3.2h.6v7.5h0ZM69.6,20.8c0,.3,0,.5,0,.7,0,.3.1.5.2.7.1.2.3.4.5.5.2.1.4.2.7.2s.5,0,.7-.2c.2-.1.3-.3.5-.5.2-.4.3-.9.3-1.4,0-.1,0-.2,0-.4,0-.1,0-.2,0-.4,0-.2-.1-.5-.3-.7-.1-.2-.3-.4-.5-.5-.2-.1-.4-.2-.7-.2s-.5,0-.7.2c-.2.1-.3.3-.5.5-.1.2-.2.4-.2.7,0,.1,0,.3,0,.4,0,.1,0,.3,0,.4h0Z"/>
      <path d="M78.9,23.2c-.5.2-1,.3-1.5.3-.8,0-1.4-.3-1.8-.8-.4-.5-.5-1.1-.5-1.9,0-.8.2-1.4.6-1.9.4-.5.9-.7,1.5-.7.7,0,1.2.3,1.5.7.3.5.5,1.1.5,1.8v.3h-3.5c0,.6.1,1,.4,1.4.3.4.7.6,1.2.6.3,0,.5,0,.8-.1.1,0,.3,0,.4-.1.1,0,.2,0,.3-.1v.6h0ZM78.6,20.4c0-.5,0-.9-.3-1.2-.2-.4-.5-.5-1-.5-.4,0-.8.2-1.1.6-.3.4-.4.8-.4,1.2h2.8,0ZM77.6,16.2h.8l-1.2,1.4h-.5l.9-1.4Z"/>
      <path d="M81.2,19.4c0-.2,0-.4,0-.6,0-.2,0-.4,0-.5h.6v1h0c.1-.3.3-.6.5-.8.2-.2.5-.3.8-.3.2,0,.3,0,.4,0v.7c-.1,0-.3,0-.5,0-.2,0-.4,0-.6.2-.2.1-.3.3-.4.5,0,.2-.2.4-.2.6,0,.2,0,.5,0,.7v2.5h-.6v-3.9h0Z"/>
      <path d="M88.2,22.5h0c-.2.3-.4.5-.7.7-.3.2-.6.2-.9.2-.4,0-.6,0-.9-.2-.2,0-.4-.2-.5-.4-.2-.3-.3-.6-.3-.9,0-.4.1-.8.3-1,.2-.2.4-.4.8-.5.2,0,.3,0,.5-.1.2,0,.3,0,.5,0,.4,0,.7,0,1,0h.1v-.3c0-.9-.4-1.3-1.1-1.3-.5,0-1,.1-1.5.4v-.6c.5-.2,1-.3,1.5-.3,1.2,0,1.8.6,1.8,1.9v2.2c0,.2,0,.4,0,.6,0,.2,0,.3,0,.5h-.6v-.8h0ZM88.1,20.7h-.2c-.1,0-.3,0-.4,0-.1,0-.3,0-.4,0-.1,0-.3,0-.4,0-.1,0-.2,0-.4.1-.2,0-.4.2-.6.4-.2.2-.2.4-.2.7s.1.6.3.7c.2.1.4.2.7.2s.7,0,.9-.2c.2-.1.4-.3.4-.5.1-.2.2-.4.2-.6,0-.1,0-.2,0-.3,0,0,0-.2,0-.2v-.3h0Z"/>
      <path d="M93.2,18.8h-1.1v3.3c0,.2,0,.4.2.6,0,.2.3.2.5.2s.4,0,.6-.1v.5s-.1,0-.3,0c-.2,0-.3,0-.5,0-.3,0-.5,0-.6-.1-.1,0-.3-.2-.3-.4,0-.2-.1-.3-.1-.5,0-.2,0-.4,0-.6v-3h-1v-.5h1v-1.2l.6-.2v1.4h1.1v.5h0Z"/>
      <path d="M95.7,16.9h-.6v-.8h.6v.8ZM95.1,18.2h.6v5.1h-.6v-5.1Z"/>
      <path d="M97.7,20.8c0-.7.2-1.3.6-1.9.4-.5,1-.8,1.8-.8.8,0,1.4.3,1.8.8.4.5.6,1.1.6,1.9s-.2,1.3-.6,1.8c-.4.5-1,.8-1.8.8-.8,0-1.4-.3-1.8-.8-.4-.5-.6-1.1-.6-1.8ZM98.3,20.8c0,.6.1,1.1.4,1.5.3.4.7.6,1.2.6.6,0,1-.2,1.3-.6.3-.4.4-.9.4-1.5s-.1-1.1-.4-1.5c-.3-.4-.7-.6-1.3-.6-.5,0-1,.2-1.2.6-.3.4-.4.9-.4,1.5Z"/>
      <path d="M104.3,19.4c0-.2,0-.4,0-.6,0-.2,0-.4,0-.6h.6v.9h0c0-.1.1-.2.2-.4,0-.1.2-.2.3-.3.1-.1.3-.2.5-.2.2,0,.4,0,.7,0,.6,0,1.1.2,1.3.6.3.4.4.8.4,1.4v3.2h-.6v-3.1c0-.5,0-.9-.3-1.2-.2-.3-.5-.4-.9-.4-.5,0-.9.2-1.2.6-.1.2-.2.4-.2.6,0,.2,0,.5,0,.7v2.8h-.6v-3.9h0Z"/>
      <path d="M113.7,22.6c.4.2.8.3,1.3.3.3,0,.6,0,.8-.2.2-.1.3-.4.3-.7,0-.3-.1-.5-.4-.7-.2-.2-.5-.3-.8-.4,0,0-.1,0-.2-.1h-.2c-.1-.2-.3-.3-.4-.4,0,0-.1-.1-.2-.2,0,0,0-.1-.1-.2,0-.1-.1-.3-.1-.5,0-.5.2-.9.5-1.1.3-.2.7-.3,1.1-.3s.2,0,.3,0c0,0,.2,0,.3,0,.2,0,.5.1.7.2v.5c-.4-.2-.8-.2-1.2-.2-.3,0-.6,0-.8.2-.1,0-.2.1-.2.2,0,.1,0,.3,0,.4s0,.2.1.3c0,0,.2.2.3.2,0,0,.1,0,.2.1,0,0,.1,0,.2.1,0,0,.1,0,.2.1,0,0,.1,0,.2.1.3.1.6.3.9.6.2.2.4.5.4,1,0,.3,0,.5-.2.7-.1.2-.2.3-.4.4-.4.2-.8.3-1.2.3s-1,0-1.4-.2v-.6c0,0,0,0,0,0Z"/>
      <path d="M122.7,22.1c0,.2,0,.4,0,.6,0,.2,0,.4,0,.6h-.6v-.9h0v.2c-.1,0-.2.1-.2.2,0,.1-.2.2-.3.3-.1.1-.3.2-.5.2-.2,0-.4.1-.7.1-.6,0-1.1-.2-1.3-.6-.3-.4-.4-.8-.4-1.4v-3.2h.6v3.1c0,.5,0,.9.3,1.1.2.3.5.4.9.4s.5,0,.7-.2c.2-.1.3-.3.5-.4.1-.2.2-.4.2-.6,0-.1,0-.2,0-.3s0-.2,0-.3v-2.8h.6v3.9Z"/>
      <path d="M125.6,16.9h-.6v-.8h.6v.8ZM125,18.2h.6v5.1h-.6v-5.1Z"/>
      <path d="M127.6,22.6c.4.2.8.3,1.3.3.3,0,.6,0,.8-.2.2-.1.3-.4.3-.7,0-.3-.1-.5-.4-.7-.2-.2-.5-.3-.8-.4,0,0-.1,0-.2-.1h-.2c-.1-.2-.3-.3-.4-.4,0,0-.1-.1-.2-.2,0,0,0-.1-.1-.2,0-.1-.1-.3-.1-.5,0-.5.2-.9.5-1.1.3-.2.7-.3,1.1-.3s.2,0,.3,0c0,0,.2,0,.3,0,.2,0,.5.1.7.2v.5c-.4-.2-.8-.2-1.2-.2-.3,0-.6,0-.8.2-.1,0-.2.1-.2.2,0,.1,0,.3,0,.4s0,.2.1.3c0,0,.2.2.3.2,0,0,.1,0,.2.1,0,0,.1,0,.2.1,0,0,.1,0,.2.1,0,0,.1,0,.2.1.3.1.6.3.9.6.2.2.4.5.4,1,0,.3,0,.5-.2.7-.1.2-.2.3-.4.4-.4.2-.8.3-1.2.3s-1,0-1.4-.2v-.6c0,0,0,0,0,0Z"/>
      <path d="M132.2,22.6c.4.2.8.3,1.3.3.3,0,.6,0,.8-.2.2-.1.3-.4.3-.7,0-.3-.1-.5-.4-.7-.2-.2-.5-.3-.8-.4,0,0-.1,0-.2-.1h-.2c-.1-.2-.3-.3-.4-.4,0,0-.1-.1-.2-.2,0,0,0-.1-.1-.2,0-.1-.1-.3-.1-.5,0-.5.2-.9.5-1.1.3-.2.7-.3,1.1-.3s.2,0,.3,0c0,0,.2,0,.3,0,.2,0,.5.1.7.2v.5c-.4-.2-.8-.2-1.2-.2-.3,0-.6,0-.8.2-.1,0-.2.1-.2.2,0,.1,0,.3,0,.4s0,.2.1.3c0,0,.2.2.3.2,0,0,.1,0,.2.1,0,0,.1,0,.2.1,0,0,.1,0,.2.1,0,0,.1,0,.2.1.3.1.6.3.9.6.2.2.4.5.4,1,0,.3,0,.5-.2.7-.1.2-.2.3-.4.4-.4.2-.8.3-1.2.3s-1,0-1.4-.2v-.6c0,0,0,0,0,0Z"/>
      <path d="M140.6,23.2c-.5.2-1,.3-1.5.3-.8,0-1.4-.3-1.8-.8-.4-.5-.5-1.1-.5-1.9,0-.8.2-1.4.6-1.9.4-.5.9-.7,1.5-.7.7,0,1.2.3,1.5.7.3.5.5,1.1.5,1.8v.3h-3.5c0,.6.1,1,.4,1.4.3.4.7.6,1.2.6.3,0,.5,0,.8-.1.1,0,.3,0,.4-.1.1,0,.2,0,.3-.1v.6h0ZM140.3,20.4c0-.5,0-.9-.3-1.2-.2-.4-.5-.5-1-.5-.4,0-.8.2-1.1.6-.3.4-.4.8-.4,1.2h2.8,0Z"/>
      <path d="M44.3,30.9c-.2-.1-.5-.2-.7-.2-.1,0-.3,0-.4,0-.1,0-.3,0-.4,0-.9,0-1.6.3-2.1.8-.5.6-.7,1.3-.7,2.2s.2,1.6.7,2.2c.5.6,1.2.8,2.1.8.1,0,.2,0,.4,0,.1,0,.3,0,.4,0,.3,0,.5-.1.7-.2v.6c0,0-.2,0-.3.1-.1,0-.3,0-.4,0-.2,0-.3,0-.4,0-.1,0-.3,0-.4,0-1.1,0-1.9-.3-2.6-1-.6-.6-.9-1.5-.9-2.6,0-1.1.3-2,.9-2.6.6-.7,1.5-1,2.5-1,.1,0,.2,0,.4,0,.1,0,.3,0,.4,0,.3,0,.6.1.8.2v.6h0Z"/>
      <path d="M46.5,34.5c0-.7.2-1.3.6-1.9.4-.5,1-.8,1.8-.8.8,0,1.4.3,1.8.8.4.5.6,1.1.6,1.9s-.2,1.3-.6,1.8c-.4.5-1,.8-1.8.8-.8,0-1.4-.3-1.8-.8-.4-.5-.6-1.1-.6-1.8ZM47.2,34.5c0,.6.1,1.1.4,1.5.3.4.7.6,1.2.6.6,0,1-.2,1.3-.6.3-.4.4-.9.4-1.5s-.1-1.1-.4-1.5c-.3-.4-.7-.6-1.3-.6-.5,0-1,.2-1.2.6-.3.4-.4.9-.4,1.5Z"/>
      <path d="M53.2,33.2c0-.2,0-.4,0-.6,0-.2,0-.4,0-.6h.6v.9h0c0-.1.1-.2.2-.4,0-.1.2-.2.3-.3.1-.1.3-.2.5-.2.2,0,.4,0,.7,0,.6,0,1.1.2,1.3.6.3.4.4.8.4,1.4v3.2h-.6v-3.1c0-.5,0-.9-.3-1.2-.2-.3-.5-.4-.9-.4-.5,0-.9.2-1.2.6-.1.2-.2.4-.2.6,0,.2,0,.5,0,.7v2.8h-.6v-3.9h0Z"/>
      <path d="M59.9,32.5h-1v-.5h1v-.4c0-.1,0-.3,0-.4,0-.1,0-.3,0-.4,0-.3,0-.5.1-.7,0-.2.2-.4.4-.5.2-.1.4-.2.7-.2h.2c0,0,.1,0,.2,0,.1,0,.2,0,.3,0v.6c-.2,0-.3-.1-.5-.1s-.4,0-.5.1c-.1.1-.2.2-.2.4,0,.2,0,.3,0,.5,0,0,0,.2,0,.3v.7h1.1v.5h-1.1v4.5h-.6v-4.5h0Z"/>
      <path d="M66.9,36.9c-.5.2-1,.3-1.5.3-.8,0-1.4-.3-1.8-.8-.4-.5-.5-1.1-.5-1.9,0-.8.2-1.4.6-1.9.4-.5.9-.7,1.5-.7.7,0,1.2.3,1.5.7.3.5.5,1.1.5,1.8v.3h-3.5c0,.6.1,1,.4,1.4.3.4.7.6,1.2.6.3,0,.5,0,.8-.1.1,0,.3,0,.4-.1.1,0,.2,0,.3-.1v.6h0ZM66.6,34.2c0-.5,0-.9-.3-1.2-.2-.4-.5-.5-1-.5-.4,0-.8.2-1.1.6-.3.4-.4.8-.4,1.2h2.8,0Z"/>
      <path d="M73.2,37.1h-.6v-.8h0c-.3.6-.9.9-1.6.9-.7,0-1.2-.3-1.6-.8-.3-.5-.5-1.1-.5-1.9,0-.8.2-1.4.5-1.9.3-.5.9-.7,1.6-.7.2,0,.5,0,.7.1,0,0,.2,0,.3.1,0,0,.2.1.2.2.3.2.4.4.4.6h0v-3.2h.6v7.5h0ZM69.6,34.5c0,.3,0,.5,0,.7,0,.3.1.5.2.7.1.2.3.4.5.5.2.1.4.2.7.2s.5,0,.7-.2c.2-.1.3-.3.5-.5.2-.4.3-.9.3-1.4,0-.1,0-.2,0-.4,0-.1,0-.2,0-.4,0-.2-.1-.5-.3-.7-.1-.2-.3-.4-.5-.5-.2-.1-.4-.2-.7-.2s-.5,0-.7.2c-.2.1-.3.3-.5.5-.1.2-.2.4-.2.7,0,.1,0,.3,0,.4,0,.1,0,.3,0,.4h0Z"/>
      <path d="M78.9,36.9c-.5.2-1,.3-1.5.3-.8,0-1.4-.3-1.8-.8-.4-.5-.5-1.1-.5-1.9,0-.8.2-1.4.6-1.9.4-.5.9-.7,1.5-.7.7,0,1.2.3,1.5.7.3.5.5,1.1.5,1.8v.3h-3.5c0,.6.1,1,.4,1.4.3.4.7.6,1.2.6.3,0,.5,0,.8-.1.1,0,.3,0,.4-.1.1,0,.2,0,.3-.1v.6h0ZM78.6,34.2c0-.5,0-.9-.3-1.2-.2-.4-.5-.5-1-.5-.4,0-.8.2-1.1.6-.3.4-.4.8-.4,1.2h2.8,0Z"/>
      <path d="M81.2,33.1c0-.2,0-.4,0-.6,0-.2,0-.4,0-.5h.6v1h0c.1-.3.3-.6.5-.8.2-.2.5-.3.8-.3.2,0,.3,0,.4,0v.7c-.1,0-.3,0-.5,0-.2,0-.4,0-.6.2-.2.1-.3.3-.4.5,0,.2-.2.4-.2.6,0,.2,0,.5,0,.7v2.5h-.6v-3.9h0Z"/>
      <path d="M88.2,36.2h0c-.2.3-.4.5-.7.7-.3.2-.6.2-.9.2-.4,0-.6,0-.9-.2-.2,0-.4-.2-.5-.4-.2-.3-.3-.6-.3-.9,0-.4.1-.8.3-1,.2-.2.4-.4.8-.5.2,0,.3-.1.5-.1.2,0,.3,0,.5,0,.4,0,.7,0,1,0h.1v-.3c0-.9-.4-1.3-1.1-1.3-.5,0-1,.1-1.5.4v-.6c.5-.2,1-.3,1.5-.3,1.2,0,1.8.6,1.8,1.9v2.2c0,.2,0,.4,0,.6,0,.2,0,.3,0,.5h-.6v-.8h0ZM88.1,34.5h-.2c-.1,0-.3,0-.4,0-.1,0-.3,0-.4,0-.1,0-.3,0-.4,0-.1,0-.2,0-.4.1-.2,0-.4.2-.6.4-.2.2-.2.4-.2.7s.1.6.3.7c.2.1.4.2.7.2s.7,0,.9-.2c.2-.1.4-.3.4-.5.1-.2.2-.4.2-.6,0-.1,0-.2,0-.3,0,0,0-.2,0-.2v-.3h0Z"/>
      <path d="M90.5,36.5l3-4h-2.9v-.5h3.6v.5l-3,4h3v.5h-3.8v-.5h0Z"/>
      <path d="M96.8,30.6h-.6v-.8h.6v.8ZM96.2,32h.6v5.1h-.6v-5.1Z"/>
      <path d="M98.8,34.5c0-.7.2-1.3.6-1.9.4-.5,1-.8,1.8-.8.8,0,1.4.3,1.8.8.4.5.6,1.1.6,1.9s-.2,1.3-.6,1.8c-.4.5-1,.8-1.8.8-.8,0-1.4-.3-1.8-.8-.4-.5-.6-1.1-.6-1.8ZM99.4,34.5c0,.6.1,1.1.4,1.5.3.4.7.6,1.2.6.6,0,1-.2,1.3-.6.3-.4.4-.9.4-1.5s-.1-1.1-.4-1.5c-.3-.4-.7-.6-1.3-.6-.5,0-1,.2-1.2.6-.3.4-.4.9-.4,1.5Z"/>
      <path d="M105.4,33.2c0-.2,0-.4,0-.6,0-.2,0-.4,0-.6h.6v.9h0c0-.1.1-.2.2-.4,0-.1.2-.2.3-.3.1-.1.3-.2.5-.2.2,0,.4,0,.7,0,.6,0,1.1.2,1.3.6.3.4.4.8.4,1.4v3.2h-.6v-3.1c0-.5,0-.9-.3-1.2-.2-.3-.5-.4-.9-.4-.5,0-.9.2-1.2.6-.1.2-.2.4-.2.6,0,.2,0,.5,0,.7v2.8h-.6v-3.9h0Z"/>
      <path d="M115.1,36.9c-.5.2-1,.3-1.5.3-.8,0-1.4-.3-1.8-.8-.4-.5-.5-1.1-.5-1.9,0-.8.2-1.4.6-1.9.4-.5.9-.7,1.5-.7.7,0,1.2.3,1.5.7.3.5.5,1.1.5,1.8v.3h-3.5c0,.6.1,1,.4,1.4.3.4.7.6,1.2.6.3,0,.5,0,.8-.1.1,0,.3,0,.4-.1.1,0,.2,0,.3-.1v.6h0ZM114.8,34.2c0-.5,0-.9-.3-1.2-.2-.4-.5-.5-1-.5-.4,0-.8.2-1.1.6-.3.4-.4.8-.4,1.2h2.8,0Z"/>
      <path d="M120.8,36.2c.4.3.9.4,1.5.4s.8-.1,1.1-.3c.3-.2.4-.6.4-1.1,0-.3-.2-.6-.5-.9,0,0-.2-.1-.2-.2,0,0-.2-.1-.3-.2,0,0-.2-.1-.3-.2l-.3-.2c-.1,0-.2-.1-.3-.2,0,0-.2-.1-.3-.2,0,0-.2-.1-.3-.2,0,0-.2-.1-.2-.2-.3-.3-.5-.6-.5-1.1,0-.6.2-1,.6-1.3.4-.3.9-.5,1.5-.5,0,0,.2,0,.3,0,.1,0,.2,0,.3,0,.3,0,.5.1.7.2v.6c-.5-.2-.9-.3-1.4-.3s-.3,0-.5,0c-.2,0-.3.1-.5.2-.1,0-.3.2-.3.4,0,.2-.1.4-.1.6s0,.3.1.5c0,.1.2.3.4.4.1.1.3.2.5.3,0,0,.2.1.3.2,0,0,.2.1.3.2.4.2.8.5,1.1.8,0,0,.1.2.2.2,0,0,.1.2.2.3,0,.2.1.4.1.7,0,.7-.3,1.2-.7,1.5-.5.3-1,.5-1.5.5-.7,0-1.2-.1-1.6-.3v-.7c0,0,0,0,0,0Z"/>
      <path d="M128.4,37.1h-.7l-1.7-5.1h.7l1.4,4.4h0l1.5-4.4h.7l-1.8,5.1Z"/>
      <path d="M132.5,30.6h-.6v-.8h.6v.8ZM131.8,32h.6v5.1h-.6v-5.1Z"/>
      <path d="M134.3,36.5l3-4h-2.9v-.5h3.6v.5l-3,4h3v.5h-3.8v-.5Z"/>
      <path d="M139.5,36.5l3-4h-2.9v-.5h3.6v.5l-3,4h3v.5h-3.8v-.5h0Z"/>
      <path d="M148.5,36.9c-.5.2-1,.3-1.5.3-.8,0-1.4-.3-1.8-.8-.4-.5-.5-1.1-.5-1.9,0-.8.2-1.4.6-1.9.4-.5.9-.7,1.5-.7.7,0,1.2.3,1.5.7.3.5.5,1.1.5,1.8v.3h-3.5c0,.6.1,1,.4,1.4.3.4.7.6,1.2.6.3,0,.5,0,.8-.1.1,0,.3,0,.4-.1.1,0,.2,0,.3-.1v.6h0ZM148.2,34.2c0-.5,0-.9-.3-1.2-.2-.4-.5-.5-1-.5-.4,0-.8.2-1.1.6-.3.4-.4.8-.4,1.2h2.8,0Z"/>
      <path d="M150.9,33.1c0-.2,0-.4,0-.6,0-.2,0-.4,0-.5h.6v1h0c.1-.3.3-.6.5-.8.2-.2.5-.3.8-.3.2,0,.3,0,.4,0v.7c-.1,0-.3,0-.5,0-.2,0-.4,0-.6.2-.2.1-.3.3-.4.5,0,.2-.2.4-.2.6,0,.2,0,.5,0,.7v2.5h-.6v-3.9h0Z"/>
      <path d="M157.8,36.2h0c-.2.3-.4.5-.7.7-.3.2-.6.2-.9.2-.4,0-.6,0-.9-.2-.2,0-.4-.2-.5-.4-.2-.3-.3-.6-.3-.9,0-.4.1-.8.3-1,.2-.2.4-.4.8-.5.2,0,.3-.1.5-.1.2,0,.3,0,.5,0,.4,0,.7,0,1,0h.1v-.3c0-.9-.4-1.3-1.1-1.3-.5,0-1,.1-1.5.4v-.6c.5-.2,1-.3,1.5-.3,1.2,0,1.8.6,1.8,1.9v2.2c0,.2,0,.4,0,.6,0,.2,0,.3,0,.5h-.6v-.8h0ZM157.8,34.5h-.2c-.1,0-.3,0-.4,0-.1,0-.3,0-.4,0-.1,0-.3,0-.4,0-.1,0-.2,0-.4.1-.2,0-.4.2-.6.4-.2.2-.2.4-.2.7s.1.6.3.7c.2.1.4.2.7.2s.7,0,.9-.2c.2-.1.4-.3.4-.5.1-.2.2-.4.2-.6,0-.1,0-.2,0-.3,0,0,0-.2,0-.2v-.3h0Z"/>
      <path d="M44.3,44.6c-.2-.1-.5-.2-.7-.2-.1,0-.3,0-.4,0-.1,0-.3,0-.4,0-.9,0-1.6.3-2.1.8-.5.6-.7,1.3-.7,2.2s.2,1.6.7,2.2c.5.6,1.2.8,2.1.8.1,0,.2,0,.4,0,.1,0,.3,0,.4,0,.3,0,.5-.1.7-.2v.6c0,0-.2,0-.3.1-.1,0-.3,0-.4,0-.2,0-.3,0-.4,0-.1,0-.3,0-.4,0-1.1,0-1.9-.3-2.6-1-.6-.6-.9-1.5-.9-2.6,0-1.1.3-2,.9-2.6.6-.7,1.5-1,2.5-1,.1,0,.2,0,.4,0,.1,0,.3,0,.4,0,.3,0,.6.1.8.2v.6h0Z"/>
      <path d="M46.5,48.3c0-.7.2-1.3.6-1.9.4-.5,1-.8,1.8-.8.8,0,1.4.3,1.8.8.4.5.6,1.1.6,1.9s-.2,1.3-.6,1.8c-.4.5-1,.8-1.8.8-.8,0-1.4-.3-1.8-.8-.4-.5-.6-1.1-.6-1.8ZM47.2,48.3c0,.6.1,1.1.4,1.5.3.4.7.6,1.2.6.6,0,1-.2,1.3-.6.3-.4.4-.9.4-1.5s-.1-1.1-.4-1.5c-.3-.4-.7-.6-1.3-.6-.5,0-1,.2-1.2.6-.3.4-.4.9-.4,1.5Z"/>
      <path d="M53.2,46.9c0-.2,0-.4,0-.6,0-.2,0-.4,0-.6h.6v.9h0c0-.1.1-.2.2-.4,0-.1.2-.2.3-.3.1-.1.3-.2.5-.2.2,0,.4,0,.7,0,.6,0,1.1.2,1.3.6.3.4.4.8.4,1.4v3.2h-.6v-3.1c0-.5,0-.9-.3-1.2-.2-.3-.5-.4-.9-.4-.5,0-.9.2-1.2.6-.1.2-.2.4-.2.6,0,.2,0,.5,0,.7v2.8h-.6v-3.9h0Z"/>
      <path d="M59.9,46.2h-1v-.5h1v-.4c0-.1,0-.3,0-.4,0-.1,0-.3,0-.4,0-.3,0-.5.1-.7,0-.2.2-.4.4-.5.2-.1.4-.2.7-.2h.2c0,0,.1,0,.2,0,.1,0,.2,0,.3,0v.6c-.2,0-.3-.1-.5-.1s-.4,0-.5.1c-.1.1-.2.2-.2.4,0,.2,0,.3,0,.5,0,0,0,.2,0,.3v.7h1.1v.5h-1.1v4.5h-.6v-4.5h0Z"/>
      <path d="M66.9,50.6c-.5.2-1,.3-1.5.3-.8,0-1.4-.3-1.8-.8-.4-.5-.5-1.1-.5-1.9,0-.8.2-1.4.6-1.9.4-.5.9-.7,1.5-.7.7,0,1.2.3,1.5.7.3.5.5,1.1.5,1.8v.3h-3.5c0,.6.1,1,.4,1.4.3.4.7.6,1.2.6.3,0,.5,0,.8-.1.1,0,.3,0,.4-.1.1,0,.2,0,.3-.1v.6h0ZM66.6,47.9c0-.5,0-.9-.3-1.2-.2-.4-.5-.5-1-.5-.4,0-.8.2-1.1.6-.3.4-.4.8-.4,1.2h2.8,0Z"/>
      <path d="M73.2,50.8h-.6v-.8h0c-.3.6-.9.9-1.6.9-.7,0-1.2-.3-1.6-.8-.3-.5-.5-1.1-.5-1.9,0-.8.2-1.4.5-1.9.3-.5.9-.7,1.6-.7.2,0,.5,0,.7.1,0,0,.2,0,.3.1,0,0,.2.1.2.2.3.2.4.4.4.6h0v-3.2h.6v7.5h0ZM69.6,48.3c0,.3,0,.5,0,.7,0,.3.1.5.2.7.1.2.3.4.5.5.2.1.4.2.7.2s.5,0,.7-.2c.2-.1.3-.3.5-.5.2-.4.3-.9.3-1.4,0-.1,0-.2,0-.4,0-.1,0-.2,0-.4,0-.2-.1-.5-.3-.7-.1-.2-.3-.4-.5-.5-.2-.1-.4-.2-.7-.2s-.5,0-.7.2c-.2.1-.3.3-.5.5-.1.2-.2.4-.2.7,0,.1,0,.3,0,.4,0,.1,0,.3,0,.4h0Z"/>
      <path d="M78.9,50.6c-.5.2-1,.3-1.5.3-.8,0-1.4-.3-1.8-.8-.4-.5-.5-1.1-.5-1.9,0-.8.2-1.4.6-1.9.4-.5.9-.7,1.5-.7.7,0,1.2.3,1.5.7.3.5.5,1.1.5,1.8v.3h-3.5c0,.6.1,1,.4,1.4.3.4.7.6,1.2.6.3,0,.5,0,.8-.1.1,0,.3,0,.4-.1.1,0,.2,0,.3-.1v.6h0ZM78.6,47.9c0-.5,0-.9-.3-1.2-.2-.4-.5-.5-1-.5-.4,0-.8.2-1.1.6-.3.4-.4.8-.4,1.2h2.8,0Z"/>
      <path d="M81.2,46.8c0-.2,0-.4,0-.6,0-.2,0-.4,0-.5h.6v1h0c.1-.3.3-.6.5-.8.2-.2.5-.3.8-.3.2,0,.3,0,.4,0v.7c-.1,0-.3,0-.5,0-.2,0-.4,0-.6.2-.2.1-.3.3-.4.5,0,.2-.2.4-.2.6,0,.2,0,.5,0,.7v2.5h-.6v-3.9h0Z"/>
      <path d="M88.2,50h0c-.2.3-.4.5-.7.7-.3.2-.6.2-.9.2-.4,0-.6,0-.9-.2-.2,0-.4-.2-.5-.4-.2-.3-.3-.6-.3-.9,0-.4.1-.8.3-1,.2-.2.4-.4.8-.5.2,0,.3-.1.5-.1.2,0,.3,0,.5,0,.4,0,.7,0,1,0h.1v-.3c0-.9-.4-1.3-1.1-1.3-.5,0-1,.1-1.5.4v-.6c.5-.2,1-.3,1.5-.3,1.2,0,1.8.6,1.8,1.9v2.2c0,.2,0,.4,0,.6,0,.2,0,.3,0,.5h-.6v-.8h0ZM88.1,48.2h-.2c-.1,0-.3,0-.4,0-.1,0-.3,0-.4,0-.1,0-.3,0-.4,0-.1,0-.2,0-.4.1-.2,0-.4.2-.6.4-.2.2-.2.4-.2.7s.1.6.3.7c.2.1.4.2.7.2s.7,0,.9-.2c.2-.1.4-.3.4-.5.1-.2.2-.4.2-.6,0-.1,0-.2,0-.3,0,0,0-.2,0-.2v-.3h0Z"/>
      <path d="M90.5,50.3l3-4h-2.9v-.5h3.6v.5l-3,4h3v.5h-3.8v-.5h0Z"/>
      <path d="M96.8,44.4h-.6v-.8h.6v.8ZM96.2,45.7h.6v5.1h-.6v-5.1Z"/>
      <path d="M103.1,49.6c0,.2,0,.4,0,.6,0,.2,0,.4,0,.6h-.6v-.9h0v.2c-.1,0-.2.1-.2.2,0,.1-.2.2-.3.3-.1.1-.3.2-.5.2-.2,0-.4.1-.7.1-.6,0-1.1-.2-1.3-.6-.3-.4-.4-.8-.4-1.4v-3.2h.6v3.1c0,.5,0,.9.3,1.1.2.3.5.4.9.4s.5,0,.7-.2c.2-.1.3-.3.5-.4.1-.2.2-.4.2-.6,0-.1,0-.2,0-.3,0-.1,0-.2,0-.3v-2.8h.6v3.9Z"/>
      <path d="M105.4,46.9c0-.2,0-.4,0-.6,0-.2,0-.4,0-.6h.6v.9h0c0-.1.1-.2.2-.4,0-.1.2-.2.3-.3.1-.1.3-.2.5-.2.2,0,.4,0,.7,0,.6,0,1.1.2,1.3.6.3.4.4.8.4,1.4v3.2h-.6v-3.1c0-.5,0-.9-.3-1.2-.2-.3-.5-.4-.9-.4-.5,0-.9.2-1.2.6-.1.2-.2.4-.2.6,0,.2,0,.5,0,.7v2.8h-.6v-3.9h0Z"/>
      <path d="M114.8,50.1c.4.2.8.3,1.3.3.3,0,.6,0,.8-.2.2-.1.3-.4.3-.7,0-.3-.1-.5-.4-.7-.2-.2-.5-.3-.8-.4,0,0-.1,0-.2-.1h-.2c-.1-.2-.3-.3-.4-.4,0,0-.1-.1-.2-.2,0,0,0-.1-.1-.2,0-.1-.1-.3-.1-.5,0-.5.2-.9.5-1.1.3-.2.7-.3,1.1-.3s.2,0,.3,0c0,0,.2,0,.3,0,.2,0,.5.1.7.2v.5c-.4-.2-.8-.2-1.2-.2-.3,0-.6,0-.8.2-.1,0-.2.1-.2.2,0,.1,0,.3,0,.4s0,.2.1.3c0,0,.2.2.3.2,0,0,.1,0,.2.1,0,0,.1,0,.2.1,0,0,.1,0,.2.1,0,0,.1,0,.2.1.3.1.6.3.9.6.2.2.4.5.4,1,0,.3,0,.5-.2.7-.1.2-.2.3-.4.4-.4.2-.8.3-1.2.3s-1,0-1.4-.2v-.6c0,0,0,0,0,0Z"/>
      <path d="M121.6,50.8h-.7l-1.7-5.1h.7l1.4,4.4h0l1.5-4.4h.7l-1.8,5.1Z"/>
      <path d="M125.6,44.4h-.6v-.8h.6v.8ZM125,45.7h.6v5.1h-.6v-5.1Z"/>
      <path d="M127.5,50.3l3-4h-2.9v-.5h3.6v.5l-3,4h3v.5h-3.8v-.5h0Z"/>
      <path d="M133.1,46.8c0-.2,0-.4,0-.6,0-.2,0-.4,0-.5h.6v1h0c.1-.3.3-.6.5-.8.2-.2.5-.3.8-.3.2,0,.3,0,.4,0v.7c-.1,0-.3,0-.5,0-.2,0-.4,0-.6.2-.2.1-.3.3-.4.5,0,.2-.2.4-.2.6,0,.2,0,.5,0,.7v2.5h-.6v-3.9h0Z"/>
      <path d="M140.1,50h0c-.2.3-.4.5-.7.7-.3.2-.6.2-.9.2-.4,0-.6,0-.9-.2-.2,0-.4-.2-.5-.4-.2-.3-.3-.6-.3-.9,0-.4.1-.8.3-1,.2-.2.4-.4.8-.5.2,0,.3-.1.5-.1.2,0,.3,0,.5,0,.4,0,.7,0,1,0h.1v-.3c0-.9-.4-1.3-1.1-1.3-.5,0-1,.1-1.5.4v-.6c.5-.2,1-.3,1.5-.3,1.2,0,1.8.6,1.8,1.9v2.2c0,.2,0,.4,0,.6,0,.2,0,.3,0,.5h-.6v-.8h0ZM140.1,48.2h-.2c-.1,0-.3,0-.4,0-.1,0-.3,0-.4,0-.1,0-.3,0-.4,0-.1,0-.2,0-.4.1-.2,0-.4.2-.6.4-.2.2-.2.4-.2.7s.1.6.3.7c.2.1.4.2.7.2s.7,0,.9-.2c.2-.1.4-.3.4-.5.1-.2.2-.4.2-.6,0-.1,0-.2,0-.3,0,0,0-.2,0-.2v-.3h0Z"/>
      <path class="st1" d="M14.1,0c8.8,0,14,2.3,14,2.3h0c0,0,.5,10.2-1.5,16-3.5,10.1-12.4,13-12.5,13h0s-9-2.9-12.5-13C-.4,12.6,0,2.4,0,2.3,0,2.3,5.3,0,14.1,0ZM11.2,4.6v6.6h-6.5v5.6h6.5v6.6h5.6v-6.6h6.5v-5.6h-6.5v-6.6h-5.6Z"/>
      <path d="M43.2,71.5v1.1c-.6-.2-1.1-.3-1.5-.3s-.5,0-.8.2c-.2.1-.3.4-.3.7s.1.4.3.5c.2.1.5.3.8.4.3.1.6.2.9.4.3.1.6.4.8.6.2.3.3.7.3,1.1,0,.7-.2,1.2-.7,1.6-.5.3-1.1.5-1.9.5s-.5,0-.7,0c-.2,0-.4,0-.5,0,0,0-.3,0-.6-.2v-1.3c.7.3,1.2.4,1.7.4s.6,0,.8-.2c.3-.2.4-.4.4-.7s-.1-.4-.3-.6c-.2-.2-.5-.3-.8-.4-.3-.1-.6-.2-.9-.4-.3-.1-.6-.4-.8-.6-.2-.3-.3-.6-.3-1.1,0-.7.2-1.3.7-1.6.5-.3,1-.5,1.7-.5s1.2,0,1.7.2h0Z"/>
      <path d="M45.9,78.3l-1.7-5.1h1.4l1.1,3.8h0l1-3.8h1.5l1.1,3.8h0l1.1-3.8h1.3l-1.6,5.1h-1.6l-1.1-3.9h0l-1.1,3.9h-1.5Z"/>
      <path d="M53.6,72.2v-1.3h1.3v1.3h-1.3ZM53.6,78.3v-5.1h1.3v5.1h-1.3Z"/>
      <path d="M59.4,73.2v1c-.5-.1-.9-.2-1.3-.2s-.4,0-.6.1c-.2,0-.2.2-.2.4s0,.3.2.4c.2,0,.3.2.6.2.2,0,.4.1.7.2.2,0,.4.3.6.5.2.2.2.5.2.8,0,.6-.2,1-.6,1.3-.4.3-.9.4-1.5.4s-1,0-1.5-.2v-1.1c.5.2,1,.3,1.4.3s.4,0,.6-.1c.2,0,.3-.3.3-.5s0-.3-.2-.4c-.1-.1-.3-.2-.4-.2-.2,0-.4-.1-.6-.2-.2,0-.4-.2-.6-.2-.2,0-.3-.2-.4-.4-.1-.2-.2-.4-.2-.7,0-.5.2-.9.6-1.2.4-.3.9-.4,1.4-.4s.9,0,1.4.2h0Z"/>
      <path d="M63.8,73.2v1c-.5-.1-.9-.2-1.3-.2s-.4,0-.6.1c-.2,0-.2.2-.2.4s0,.3.2.4c.2,0,.3.2.6.2.2,0,.4.1.7.2.2,0,.4.3.6.5.2.2.2.5.2.8,0,.6-.2,1-.6,1.3-.4.3-.9.4-1.5.4s-1,0-1.5-.2v-1.1c.5.2,1,.3,1.4.3s.4,0,.6-.1c.2,0,.3-.3.3-.5s0-.3-.2-.4c-.1-.1-.3-.2-.4-.2-.2,0-.4-.1-.6-.2-.2,0-.4-.2-.6-.2-.2,0-.3-.2-.4-.4-.1-.2-.2-.4-.2-.7,0-.5.2-.9.6-1.2.4-.3.9-.4,1.4-.4s.9,0,1.4.2h0Z"/>
      <path d="M72.9,77v1.2c-.6.1-1.1.2-1.5.2-1.2,0-2.1-.3-2.8-.9-.7-.6-1-1.5-1-2.6s.3-2.1,1-2.7c.7-.6,1.6-1,2.8-1s1.1,0,1.6.3v1.2c-.5-.2-1-.4-1.6-.4s-1.3.2-1.7.7c-.4.5-.6,1.1-.6,1.8s.2,1.3.6,1.8c.4.5,1,.7,1.7.7s1.1,0,1.5-.3h0Z"/>
      <path d="M73.5,75.8c0-.8.2-1.5.8-2,.5-.5,1.1-.7,1.9-.7s1.4.2,1.9.7.8,1.2.8,2-.2,1.4-.7,1.9c-.5.5-1.1.8-2,.8s-1.5-.3-1.9-.8c-.5-.5-.7-1.1-.7-1.9h0ZM74.9,75.6c0,.5,0,.9.3,1.3.2.3.5.5,1,.5s.5,0,.6-.2c.2-.1.3-.2.4-.4,0-.2.2-.4.2-.6,0-.2,0-.4,0-.6,0-.4-.1-.8-.3-1.1-.2-.3-.5-.4-.9-.4s-.7.1-.9.4c-.2.3-.3.7-.3,1.1h0Z"/>
      <path d="M79.9,78.3v-5.1h1.3v.7h0c.4-.5.9-.8,1.7-.8s1,.2,1.3.5c.3.4.4.9.4,1.5v3.2h-1.3v-2.7c0-.2,0-.3,0-.4,0-.1,0-.2,0-.4,0-.2,0-.3-.1-.4,0,0-.1-.2-.3-.2-.1,0-.3,0-.4,0s-.4,0-.6.2c-.2.1-.3.3-.4.4,0,.2-.1.4-.2.5,0,.2,0,.4,0,.5v2.5h-1.3,0Z"/>
      <path d="M86.4,78.3v-4.2h-1v-1h1v-.7c0-.5.1-.9.4-1.3.3-.3.7-.5,1.2-.5s.7,0,1,.1v1.1c-.3-.1-.5-.2-.7-.2-.4,0-.6.3-.6.8v.6h1.2v1h-1.2v4.2h-1.3Z"/>
      <path d="M93.9,76.9v1.1c-.5.3-1.1.4-1.8.4s-1.5-.2-2-.7c-.5-.5-.7-1.1-.7-2s.2-1.4.6-1.9c.4-.5,1-.8,1.8-.8s.9,0,1.2.2c.3.1.6.4.7.7.2.3.3.6.4,1,0,.4.1.8.1,1.2h-3.5c0,.4.2.7.4,1,.3.2.6.3,1,.3s1.1-.2,1.7-.5h0ZM90.7,75.2h2.3c0-.4-.1-.6-.3-.9-.2-.2-.4-.3-.8-.3s-.6.1-.8.3c-.2.2-.3.5-.3.9Z"/>
      <path d="M98.7,78.3v-.6h0c-.4.5-.9.7-1.6.7s-.9-.1-1.2-.4c-.3-.3-.6-.6-.7-1-.1-.4-.2-.8-.2-1.3,0-.8.2-1.4.5-1.9.3-.5.9-.8,1.6-.8s1.1.2,1.5.7h0v-2.9h1.3v7.5h-1.3,0ZM96.4,75.7c0,.3,0,.5,0,.8,0,.2.2.4.4.6.2.2.4.3.7.3.4,0,.7-.2.9-.5.2-.3.3-.7.3-1.2s-.1-.8-.3-1.1c-.2-.3-.5-.5-.9-.5s-.5,0-.7.3c-.2.2-.3.4-.3.6,0,.2,0,.5,0,.7h0Z"/>
      <path d="M105.4,76.9v1.1c-.5.3-1.1.4-1.8.4s-1.5-.2-2-.7c-.5-.5-.7-1.1-.7-2s.2-1.4.6-1.9c.4-.5,1-.8,1.8-.8s.9,0,1.2.2c.3.1.6.4.7.7.2.3.3.6.4,1,0,.4.1.8.1,1.2h-3.5c0,.4.2.7.4,1,.3.2.6.3,1,.3s1.1-.2,1.7-.5h0ZM102.3,75.2h2.3c0-.4-.1-.6-.3-.9-.2-.2-.4-.3-.8-.3s-.6.1-.8.3c-.2.2-.3.5-.3.9Z"/>
      <path d="M106.9,78.3v-5.1h1.2v1.2h0c0-.3.2-.6.4-.9.3-.3.6-.4.9-.4s.3,0,.4,0v1.3c-.1,0-.3-.1-.6-.1s-.3,0-.4,0c-.1,0-.2.2-.3.3,0,.1-.1.3-.2.4,0,.1,0,.3,0,.5,0,.2,0,.3,0,.4s0,.2,0,.4v1.9h-1.3,0Z"/>
      <path d="M111,74.6v-1.1c.5-.3,1.1-.4,1.7-.4s1.3.2,1.7.5c.3.3.5.9.5,1.6v.7c0,.4,0,.8,0,1.3,0,.4,0,.7,0,1.1h-1.2c0,0,0-.3,0-.8h0c-.2.3-.4.5-.7.6-.3.2-.6.2-.9.2-.5,0-.9-.1-1.3-.4-.4-.3-.5-.6-.5-1.1,0-.7.3-1.2.9-1.5.4-.2,1-.3,1.7-.3h.7c0-.4,0-.7-.3-.9-.2-.2-.5-.2-.9-.2s-1.1.2-1.6.6h0ZM111.6,76.8c0,.2,0,.4.2.5.2.1.4.2.6.2.4,0,.7-.2.9-.5.2-.2.3-.6.3-1.1h-.6c-1,0-1.5.3-1.5.9h0Z"/>
      <path d="M116.6,76.8v-2.6h-1v-1h1v-1l1.3-.4v1.5h1.2v1h-1.2v2.4c0,.6.2.8.6.8s.5,0,.6-.1v1.1c-.2,0-.6.1-.9.1s-.9-.1-1.2-.4c-.3-.3-.4-.7-.4-1.2h0Z"/>
      <path d="M120.1,72.2v-1.3h1.3v1.3h-1.3ZM120.1,78.3v-5.1h1.3v5.1h-1.3Z"/>
      <path d="M122.5,75.8c0-.8.2-1.5.8-2,.5-.5,1.1-.7,1.9-.7s1.4.2,1.9.7c.5.5.8,1.2.8,2s-.2,1.4-.7,1.9c-.5.5-1.1.8-2,.8s-1.5-.3-1.9-.8c-.5-.5-.7-1.1-.7-1.9h0ZM123.9,75.6c0,.5,0,.9.3,1.3.2.3.5.5,1,.5s.5,0,.6-.2c.2-.1.3-.2.4-.4,0-.2.2-.4.2-.6,0-.2,0-.4,0-.6,0-.4-.1-.8-.3-1.1-.2-.3-.5-.4-.9-.4s-.7.1-.9.4c-.2.3-.3.7-.3,1.1h0Z"/>
      <path d="M128.8,78.3v-5.1h1.3v.7h0c.4-.5.9-.8,1.7-.8s1,.2,1.3.5c.3.4.4.9.4,1.5v3.2h-1.3v-2.7c0-.2,0-.3,0-.4,0-.1,0-.2,0-.4,0-.2,0-.3-.1-.4,0,0-.1-.2-.3-.2-.1,0-.3,0-.4,0s-.4,0-.6.2c-.2.1-.3.3-.4.4,0,.2-.1.4-.2.5,0,.2,0,.4,0,.5v2.5h-1.3,0Z"/>
      <path d="M39.3,84.9h1.4v5.9h2v-5.9h1.4v5.9h2.1v-5.9h1.4v7.1s-8.4,0-8.4,0v-7.1h0Z"/>
      <path d="M49.2,86.9h3c.6,0,1.1.1,1.4.3.3.2.5.6.5,1s0,.5-.2.8c-.2.2-.4.4-.6.4.4,0,.6.3.8.5.2.2.3.5.3.8s-.1.7-.4,1c-.3.3-.7.4-1.3.4h-3.2v-5.2h0ZM50.6,89h.9c.4,0,.7,0,.9-.2.2-.1.3-.3.3-.5s0-.4-.3-.5c-.2,0-.5-.1-.9-.1h-.9v1.3ZM50.6,91.2h1.1c.4,0,.7,0,.8-.1.2,0,.3-.3.3-.5s-.1-.4-.3-.5c-.2,0-.6-.1-1.2-.1h-.7v1.3h0Z"/>
      <path d="M58.1,90.4l1.4.2c-.2.5-.4.9-.8,1.1-.4.3-.8.4-1.4.4-.9,0-1.6-.3-2-.9-.3-.5-.5-1.1-.5-1.8s.2-1.5.7-2c.4-.5,1-.7,1.7-.7s1.4.3,1.8.8c.4.5.7,1.3.6,2.3h-3.4c0,.4.1.7.3.9.2.2.5.3.8.3s.4,0,.5-.2c.1-.1.3-.3.3-.6h0ZM58.2,89c0-.4-.1-.7-.3-.9-.2-.2-.4-.3-.7-.3s-.5.1-.7.3c-.2.2-.3.5-.3.9h2Z"/>
      <path d="M60.6,86.9h1.3v3.2l2.1-3.2h1.3v5.2h-1.3v-3.3l-2.1,3.3h-1.3v-5.2ZM63.9,84.8h.7c0,.4-.2.8-.5,1s-.6.4-1,.4-.8-.1-1-.4-.4-.6-.5-1h.7c0,.2.1.4.2.5.1.1.3.2.6.2s.5,0,.6-.2c.1-.1.2-.3.2-.5Z"/>
      <path d="M66.7,86.9h1.4v4.1h1.9v-4.1h1.4v4.1h.5v2.5h-1.1v-1.4h-4.1v-5.2h0Z"/>
      <path d="M74,88.4l-1.2-.2c.1-.5.4-.9.7-1.1.3-.2.8-.4,1.5-.4s1.1,0,1.4.2c.3.1.5.3.6.6.1.2.2.6.2,1.2v1.6c0,.5,0,.8,0,1,0,.2.1.4.2.7h-1.3c0,0,0-.2-.1-.4,0,0,0-.1,0-.2-.2.2-.5.4-.7.5-.3.1-.5.2-.8.2-.5,0-.9-.1-1.2-.4-.3-.3-.5-.7-.5-1.1s0-.6.2-.8c.1-.2.3-.4.6-.5.2-.1.6-.2,1.1-.3.6-.1,1.1-.2,1.3-.3h0c0-.4,0-.6-.2-.7-.1-.1-.4-.2-.7-.2s-.4,0-.6.1c-.1,0-.2.3-.3.5h0ZM75.8,89.6c-.2,0-.4.1-.8.2-.4,0-.6.2-.7.2-.2.1-.3.3-.3.5s0,.4.2.5c.1.1.3.2.5.2s.5,0,.7-.2c.2-.1.3-.3.3-.5,0-.1,0-.3,0-.7v-.3h0Z"/>
      <path d="M78.4,86.9h1.3v.8c.2-.3.4-.5.7-.6.3-.2.6-.2.9-.2.6,0,1.1.2,1.5.7.4.5.6,1.1.6,2s-.2,1.5-.6,2c-.4.5-.9.7-1.5.7s-.5,0-.8-.2c-.2-.1-.5-.3-.7-.6v2.6h-1.4v-7.1h0ZM79.7,89.4c0,.6.1,1,.3,1.3.2.3.5.4.8.4s.6-.1.8-.4c.2-.3.3-.7.3-1.3s-.1-.9-.3-1.2c-.2-.3-.5-.4-.8-.4s-.6.1-.8.4c-.2.3-.3.6-.3,1.1h0Z"/>
      <path d="M89,88.4l-1.3.2c0-.3-.1-.5-.3-.6-.2-.1-.4-.2-.6-.2s-.6.1-.8.4c-.2.2-.3.6-.3,1.2s.1,1,.3,1.3c.2.3.5.4.8.4s.5,0,.6-.2c.2-.1.3-.4.3-.8l1.3.2c-.1.6-.4,1.1-.8,1.4-.4.3-.9.5-1.6.5s-1.3-.2-1.8-.7c-.4-.5-.7-1.1-.7-2s.2-1.5.7-2c.4-.5,1.1-.7,1.8-.7s1.1.1,1.5.4c.4.3.6.7.8,1.2h0Z"/>
      <path d="M90,86.9h1.4v2.1h1.4c.5,0,.9,0,1.2.1.3,0,.5.2.7.5.2.3.3.6.3.9,0,.5-.2.9-.5,1.1-.3.3-.9.4-1.5.4h-2.9v-5.2h0ZM91.4,91.2h1.3c.4,0,.7,0,.8-.2.1-.1.2-.3.2-.5s0-.4-.3-.5c-.2,0-.5-.1-1-.1h-.9v1.3Z"/>
      <path d="M96,86.9h1.4v2.1c.2,0,.4,0,.5-.2,0-.1.2-.4.3-.7.2-.5.4-.8.6-1,.2-.1.5-.2.8-.2s.3,0,.5,0v.9c-.4,0-.6,0-.7.1-.1,0-.2.3-.3.6-.2.5-.4.8-.7.9.4.1.8.5,1.1,1.1,0,0,0,0,0,.1l.8,1.4h-1.5l-.7-1.5c-.1-.3-.3-.5-.4-.6-.1,0-.3-.1-.5-.1v2.2h-1.4v-5.2h0Z"/>
      <path d="M102,88.4l-1.2-.2c.1-.5.4-.9.7-1.1.3-.2.8-.4,1.5-.4s1.1,0,1.4.2c.3.1.5.3.6.6.1.2.2.6.2,1.2v1.6c0,.5,0,.8,0,1,0,.2.1.4.2.7h-1.3c0,0,0-.2-.1-.4,0,0,0-.1,0-.2-.2.2-.5.4-.7.5s-.5.2-.8.2c-.5,0-.9-.1-1.2-.4-.3-.3-.5-.7-.5-1.1s0-.6.2-.8c.1-.2.3-.4.6-.5.2-.1.6-.2,1.1-.3.6-.1,1.1-.2,1.3-.3h0c0-.4,0-.6-.2-.7-.1-.1-.4-.2-.7-.2s-.4,0-.6.1c-.1,0-.2.3-.3.5h0ZM103.9,89.6c-.2,0-.5.1-.8.2-.4,0-.6.2-.7.2-.2.1-.3.3-.3.5s0,.4.2.5c.1.1.3.2.5.2s.5,0,.7-.2c.2-.1.3-.3.3-.5,0-.1,0-.3,0-.7v-.3h0Z"/>
      <path d="M109.3,84.9h1.4v3c.3,0,.5-.1.6-.2.1-.1.3-.5.5-1.1.3-.8.6-1.3.9-1.4.3-.2.8-.3,1.4-.3s0,0,.2,0v1.1h-.2c-.3,0-.5,0-.6.1-.1,0-.2.2-.3.3,0,.1-.2.5-.4.9,0,.2-.2.5-.3.6-.1.2-.3.3-.5.5.3,0,.6.3.8.6.2.3.4.7.7,1.2l1,2h-1.7l-.8-1.8s0,0,0-.1c0,0,0-.1-.2-.3-.2-.3-.3-.6-.5-.7-.1,0-.3-.1-.5-.1v3.1h-1.4v-7.1h0Z"/>
      <path d="M115,89.4c0-.5.1-.9.3-1.3.2-.4.5-.7.9-1,.4-.2.9-.3,1.4-.3.8,0,1.4.3,1.9.8.5.5.7,1.1.7,1.9s-.2,1.4-.8,1.9c-.5.5-1.1.8-1.9.8s-.9-.1-1.3-.3c-.4-.2-.8-.5-1-.9-.2-.4-.3-.9-.3-1.5h0ZM116.4,89.5c0,.5.1.9.4,1.2.2.3.5.4.9.4s.7-.1.9-.4c.2-.3.4-.7.4-1.2s-.1-.9-.4-1.2c-.2-.3-.5-.4-.9-.4s-.7.1-.9.4c-.2.3-.4.7-.4,1.2Z"/>
      <path d="M121.3,86.9h1.4v1.9h1.9v-1.9h1.4v5.2h-1.4v-2.2h-1.9v2.2h-1.4v-5.2Z"/>
      <path d="M130.3,84.9h1.3v2.6c.2-.3.4-.4.6-.6s.5-.2.8-.2c.6,0,1,.3,1.3.8.3.5.5,1.2.5,1.9s-.2,1.4-.6,1.9c-.4.5-.9.8-1.4.8s-.5,0-.7-.2c-.2-.1-.4-.3-.6-.5v2.6h-1.3v-2.6c-.2.2-.4.4-.6.5-.2.1-.5.2-.7.2-.6,0-1-.3-1.4-.8-.4-.5-.5-1.2-.5-1.9s.2-1.4.6-1.9c.4-.5.9-.8,1.3-.8s.5,0,.7.2c.2.1.4.3.6.6v-2.6ZM129.4,87.8c-.3,0-.5.1-.7.5-.2.3-.3.7-.3,1.2s0,.9.3,1.2c.2.3.4.5.7.5s.5-.1.7-.5c.2-.3.3-.7.3-1.2s-.1-1-.3-1.2c-.2-.3-.4-.4-.6-.4h0ZM132.6,87.8c-.3,0-.5.2-.7.5-.2.3-.3.7-.3,1.2s0,.9.3,1.2c.2.3.4.4.7.4s.5-.2.7-.5c.2-.3.3-.7.3-1.1s0-.9-.3-1.2c-.2-.3-.4-.5-.7-.5Z"/>
      <path d="M138.8,90.4l1.4.2c-.2.5-.5.9-.8,1.1-.4.3-.8.4-1.4.4-.9,0-1.6-.3-2-.9-.3-.5-.5-1.1-.5-1.8s.2-1.5.7-2c.4-.5,1-.7,1.7-.7s1.4.3,1.8.8c.4.5.7,1.3.6,2.3h-3.4c0,.4.1.7.3.9.2.2.5.3.8.3s.4,0,.5-.2c.1-.1.3-.3.3-.6h0ZM138.9,89c0-.4-.1-.7-.3-.9s-.4-.3-.7-.3-.5.1-.7.3c-.2.2-.3.5-.3.9h2Z"/>
      <path d="M145.6,92h-3.9v1.4h-1.1v-2.5h.6c.2-.3.4-.7.6-1.2.2-.6.2-1.5.3-2.8h4.1v4h.6v2.5h-1.1v-1.4h0ZM144.8,90.9v-2.9h-1.6c0,1.4-.3,2.4-.7,2.9h2.3Z"/>
      <path d="M150.6,90.4l1.4.2c-.2.5-.4.9-.8,1.1-.4.3-.8.4-1.4.4-.9,0-1.6-.3-2-.9-.3-.5-.5-1.1-.5-1.8s.2-1.5.7-2c.4-.5,1-.7,1.7-.7s1.4.3,1.8.8c.4.5.7,1.3.6,2.3h-3.4c0,.4.1.7.3.9.2.2.5.3.8.3s.4,0,.5-.2c.1-.1.3-.3.3-.6h0ZM150.7,89c0-.4-.1-.7-.3-.9s-.4-.3-.7-.3-.5.1-.7.3c-.2.2-.3.5-.3.9h2Z"/>
      <path d="M153.1,86.9h1.3v.8c.2-.3.4-.5.7-.6.3-.2.6-.2.9-.2.6,0,1.1.2,1.5.7.4.5.6,1.1.6,2s-.2,1.5-.6,2c-.4.5-.9.7-1.5.7s-.5,0-.8-.2c-.2-.1-.5-.3-.7-.6v2.6h-1.4v-7.1h0ZM154.5,89.4c0,.6.1,1,.3,1.3.2.3.5.4.8.4s.6-.1.8-.4c.2-.3.3-.7.3-1.3s-.1-.9-.3-1.2c-.2-.3-.5-.4-.8-.4s-.6.1-.8.4c-.2.3-.3.6-.3,1.1h0Z"/>
      <path d="M160.2,88.4l-1.2-.2c.1-.5.4-.9.7-1.1.3-.2.8-.4,1.5-.4s1.1,0,1.4.2c.3.1.5.3.6.6.1.2.2.6.2,1.2v1.6c0,.5,0,.8,0,1,0,.2.1.4.2.7h-1.3c0,0,0-.2-.1-.4,0,0,0-.1,0-.2-.2.2-.5.4-.7.5s-.5.2-.8.2c-.5,0-.9-.1-1.2-.4-.3-.3-.5-.7-.5-1.1s0-.6.2-.8c.1-.2.3-.4.6-.5.2-.1.6-.2,1.1-.3.6-.1,1.1-.2,1.3-.3h0c0-.4,0-.6-.2-.7-.1-.1-.4-.2-.7-.2s-.4,0-.6.1c-.1,0-.2.3-.3.5h0ZM162,89.6c-.2,0-.4.1-.8.2-.4,0-.6.2-.7.2-.2.1-.3.3-.3.5s0,.4.2.5c.1.1.3.2.5.2s.5,0,.7-.2c.2-.1.3-.3.3-.5,0-.1,0-.3,0-.7v-.3h0Z"/>
      <path d="M164.6,86.9h1.4v4.1h1.9v-4.1h1.4v4.1h.5v2.5h-1.1v-1.4h-4.1v-5.2h0Z"/>
      <path d="M170.8,86.2v-1.3h1.4v1.3h-1.4ZM170.8,92v-5.2h1.4v5.2h-1.4Z"/>
      <path d="M177.9,86.9v5.2h-1.3v-2.1h-.1c-.3,0-.5,0-.6.1-.1,0-.3.2-.5.5h0c0,.1-.9,1.5-.9,1.5h-1.6l1-1.5c.3-.4.5-.7.8-.7-.4,0-.7-.2-.9-.4-.2-.3-.4-.6-.4-1s0-.6.2-.9c.2-.2.4-.4.6-.5.3,0,.6-.1,1.2-.1h2.7,0ZM176.6,87.8h-1c-.4,0-.6,0-.8.2-.1.1-.2.3-.2.5s0,.4.2.5c.2.1.4.2.8.2h.9v-1.3Z"/>
    </g>
  </g>
</svg>