<svg width="29" height="29" viewBox="0 0 29 29" fill="none" xmlns="http://www.w3.org/2000/svg">
<path d="M25.5251 10.2524C25.4805 10.213 25.4285 10.1828 25.3722 10.1635C25.3158 10.1443 25.2563 10.1363 25.1968 10.14C25.1374 10.1437 25.0793 10.1592 25.0259 10.1854C24.9724 10.2116 24.9246 10.2481 24.8853 10.2927L23.6496 11.6947C22.9061 10.9243 21.979 10.3553 20.9553 10.0413C21.3281 9.7925 21.6673 9.49674 21.9644 9.16129C22.5326 8.48108 22.9405 7.68181 23.158 6.82264C23.3755 5.96346 23.397 5.06638 23.221 4.19776L24.6596 2.56651C24.7357 2.47592 24.7733 2.35917 24.7644 2.24121C24.7556 2.12326 24.7009 2.01345 24.6122 1.93524C24.5234 1.85702 24.4076 1.81662 24.2895 1.82264C24.1714 1.82867 24.0603 1.88065 23.9799 1.96748L22.5454 3.59329C20.0441 3.4782 17.9688 4.60286 16.9769 6.53C16.5402 5.56345 15.8666 4.72277 15.0185 4.08584L16.2533 2.68523C16.3293 2.59463 16.3669 2.47789 16.3581 2.35993C16.3492 2.24198 16.2945 2.13217 16.2058 2.05395C16.1171 1.97574 16.0013 1.93533 15.8831 1.94136C15.765 1.94738 15.6539 1.99937 15.5736 2.0862C15.5672 2.08983 14.0633 3.80581 14.0547 3.80536C12.4959 5.13845 11.6885 6.84673 11.7741 8.62117C11.5081 8.37608 11.2247 8.15044 10.9263 7.94601C10.8442 7.89042 10.746 7.86334 10.647 7.8689C10.5479 7.87447 10.4535 7.91238 10.378 7.97683C8.81929 9.30992 8.01182 11.0187 8.09746 12.7926C7.71094 12.5344 7.22066 11.7822 6.70138 12.1483C5.12949 13.4923 4.3193 15.2182 4.42035 17.0081C4.48808 17.8586 4.74181 18.684 5.16361 19.4257C5.5854 20.1674 6.16497 20.8074 6.86134 21.3005C5.46928 22.8823 4.29453 24.6429 3.36819 26.5355C3.31544 26.6436 3.30781 26.7683 3.34698 26.8821C3.38616 26.9959 3.46893 27.0894 3.57709 27.1422C3.68524 27.195 3.80993 27.2026 3.92371 27.1634C4.0375 27.1242 4.13106 27.0415 4.18382 26.9333C5.07548 25.113 6.2057 23.4195 7.54465 21.8977C10.2611 24.8018 14.5495 24.3414 16.6815 20.9425C16.9801 20.3861 16.1708 19.9837 15.8658 19.6389C17.6371 19.503 19.2307 18.4852 20.3572 16.7711C20.6563 16.2142 19.8465 15.8127 19.5416 15.4674C21.2979 15.3419 22.8426 14.3138 23.989 12.6803L25.5654 10.8918C25.6448 10.8016 25.6852 10.6836 25.6776 10.5637C25.6701 10.4439 25.6152 10.3319 25.5251 10.2524ZM22.3532 4.48731C22.7076 6.91425 21.5902 9.082 19.349 9.82875C18.5775 9.84159 17.8188 10.0274 17.1287 10.3725C17.3925 9.6305 17.4782 8.83688 17.3788 8.05567C17.889 5.79004 19.8216 4.413 22.3555 4.48595L22.3532 4.48731ZM10.0631 16.733C10.3318 16.9825 10.6197 17.2105 10.9241 17.415C11.1644 17.6918 11.426 17.9493 11.7066 18.1853C11.036 18.2373 10.3814 18.4167 9.7781 18.7141C9.99802 18.0778 10.0948 17.4055 10.0631 16.733ZM13.7398 12.5615C14.0084 12.8104 14.2963 13.0377 14.6007 13.2412C14.8409 13.5182 15.1026 13.7757 15.3833 14.0115C14.7124 14.0655 14.0579 14.2467 13.4548 14.5453C13.6751 13.9082 13.7718 13.2349 13.7398 12.5615ZM14.3819 4.72973C17.0394 6.65733 17.2316 10.0671 14.8082 12.2815C12.1507 10.3539 11.9585 6.94415 14.3819 4.72973ZM10.7052 8.9012C13.3628 10.8288 13.5549 14.2386 11.1316 16.4534C8.47355 14.5254 8.28233 11.1156 10.7052 8.9012ZM5.32524 16.9573C5.30445 16.2242 5.44643 15.4955 5.74095 14.8238C6.03547 14.1521 6.47521 13.5541 7.02854 13.0727C7.63251 13.4885 8.13677 14.0331 8.50502 14.6672C8.87328 15.3013 9.09636 16.0091 9.15823 16.7398C9.17918 17.473 9.03728 18.2018 8.74275 18.8736C8.44822 19.5454 8.00839 20.1435 7.45493 20.6249C6.85095 20.209 6.34669 19.6643 5.97844 19.0301C5.61018 18.396 5.3871 17.688 5.32524 16.9573ZM12.0822 22.9118C11.3494 22.943 10.6188 22.811 9.94319 22.5252C9.26761 22.2395 8.66395 21.8073 8.17585 21.2597C8.58371 20.6503 9.12162 20.1388 9.75087 19.7622C10.3801 19.3855 11.085 19.1531 11.8149 19.0816C12.5481 19.0508 13.279 19.183 13.9548 19.4688C14.6307 19.7546 15.2348 20.1867 15.7236 20.7341C15.3155 21.3438 14.7772 21.8554 14.1475 22.232C13.5178 22.6086 12.8125 22.8407 12.0822 22.9118ZM15.7589 18.7404C15.026 18.7716 14.2954 18.6395 13.6198 18.3538C12.9442 18.0681 12.3406 17.6358 11.8525 17.0883C12.2604 16.4788 12.7983 15.9673 13.4275 15.5907C14.0568 15.214 14.7617 14.9816 15.4916 14.9101C16.2245 14.879 16.9552 15.0111 17.6309 15.2969C18.3065 15.5827 18.9102 16.015 19.3984 16.5626C18.9905 17.1721 18.4525 17.6835 17.8231 18.0601C17.1938 18.4367 16.4888 18.669 15.7589 18.7404ZM19.4351 14.5689C18.7025 14.5982 17.9726 14.4653 17.2973 14.1797C16.6221 13.8941 16.0183 13.4629 15.5292 12.9168C15.9369 12.3075 16.4747 11.7961 17.1038 11.4196C17.7329 11.043 18.4376 10.8106 19.1673 10.7391C19.9002 10.7079 20.6309 10.8399 21.3065 11.1257C21.9821 11.4115 22.5857 11.8439 23.0737 12.3916C22.6658 13.0009 22.1279 13.5122 21.4988 13.8886C20.8696 14.2651 20.1648 14.4974 19.4351 14.5689Z" fill="white"/>
</svg>
