<svg width="18" height="18" viewBox="0 0 18 18" fill="none" xmlns="http://www.w3.org/2000/svg">
<path d="M8.99954 14.2503C9.14851 14.2511 9.29436 14.2076 9.4185 14.1253C9.54264 14.0429 9.63945 13.9255 9.69657 13.7879C9.7537 13.6503 9.76856 13.4988 9.73925 13.3528C9.70995 13.2067 9.63782 13.0727 9.53204 12.9678L5.55704 9.00027L9.53204 5.03276C9.65491 4.88929 9.71912 4.70473 9.71183 4.51597C9.70454 4.32722 9.62629 4.14816 9.49272 4.01459C9.35915 3.88102 9.18009 3.80277 8.99133 3.79548C8.80258 3.78819 8.61802 3.85239 8.47454 3.97526L3.97454 8.47527C3.83486 8.61579 3.75645 8.80588 3.75645 9.00402C3.75645 9.20215 3.83486 9.39224 3.97454 9.53277L8.47454 14.0328C8.61424 14.1713 8.80279 14.2494 8.99954 14.2503Z" fill="#8F94A6"/>
<path d="M13.4995 14.2501C13.6485 14.251 13.7944 14.2075 13.9185 14.1251C14.0426 14.0428 14.1394 13.9253 14.1966 13.7878C14.2537 13.6502 14.2686 13.4987 14.2393 13.3526C14.21 13.2066 14.1378 13.0725 14.032 12.9676L10.057 9.00014L14.032 5.03264C14.1733 4.89141 14.2526 4.69987 14.2526 4.50014C14.2526 4.30041 14.1733 4.10887 14.032 3.96764C13.8908 3.82641 13.6993 3.74707 13.4995 3.74707C13.2998 3.74707 13.1083 3.82641 12.967 3.96764L8.46704 8.46764C8.32736 8.60816 8.24895 8.79825 8.24895 8.99639C8.24895 9.19453 8.32736 9.38462 8.46704 9.52514L12.967 14.0251C13.0365 14.096 13.1193 14.1524 13.2107 14.191C13.3022 14.2296 13.4003 14.2497 13.4995 14.2501Z" fill="#8F94A6"/>
</svg>
