<svg width="22" height="22" viewBox="0 0 22 22" fill="none" xmlns="http://www.w3.org/2000/svg">
<g clip-path="url(#clip0_717_3176)">
<path d="M11 9.15527e-05C4.93457 9.15527e-05 0 4.93467 0 11C0 17.0654 4.93457 22 11 22C17.0653 22 21.9999 17.0655 21.9999 11C21.9999 4.93462 17.0653 9.15527e-05 11 9.15527e-05ZM11 20.625C5.69276 20.625 1.375 16.3072 1.375 11C1.375 5.69285 5.69276 1.37509 11 1.37509C16.3072 1.37509 20.6249 5.69281 20.6249 11C20.6249 16.3072 16.3072 20.625 11 20.625ZM17.1015 11C17.1015 11.3798 16.7937 11.6875 16.414 11.6875H11.6875C11.054 11.6875 11.3796 11.6875 11 11.6875C10.6203 11.6875 11.2634 11.6875 10.3125 11.6875H5.58589C5.20622 11.6875 4.89839 11.3798 4.89839 11C4.89839 10.6203 5.20622 10.3125 5.58589 10.3125H10.3125C11 10.3125 10.6203 10.3125 11 10.3125C11.3796 10.3125 11.3906 10.3125 11.6875 10.3125H16.414C16.7937 10.3125 17.1015 10.6204 17.1015 11Z" fill="#2B7441"/>
</g>
<defs>
<clipPath id="clip0_717_3176">
<rect width="22" height="22" fill="white"/>
</clipPath>
</defs>
</svg>
