<svg width="15" height="16" viewBox="0 0 15 16" fill="none" xmlns="http://www.w3.org/2000/svg">
<g clip-path="url(#clip0_717_2794)">
<path d="M11.1088 8.93566C10.5458 9.4994 9.6663 10.3798 8.92988 11.1214C8.05452 10.5484 7.26328 9.91607 6.62698 9.27978C5.84123 8.49403 4.85865 7.37526 4.32764 6.58276C5.00181 5.91339 5.88346 5.03289 6.5304 4.38652L2.64387 0.5L0.704674 2.40429L0.701813 2.40716C0.159135 2.94983 -0.0706623 3.69061 0.0188304 4.60888C0.305047 7.5452 3.89574 11.7984 7.06987 13.9286C8.90756 15.1619 11.549 16.3036 13.1113 14.7411C14.2457 13.6069 14.6793 13.1448 14.6972 13.1257L14.9881 12.8151L11.1088 8.93566ZM12.4894 14.1193C11.3067 15.3019 8.96112 14.1386 7.55991 13.1982C4.61443 11.2214 1.15248 7.1727 0.894188 4.52351C0.831474 3.88058 0.975555 3.37819 1.32231 3.03051L2.63827 1.73825L5.28608 4.38618C3.94323 5.72697 3.53869 6.1266 3.21699 6.44509L3.38762 6.7392C3.90581 7.63184 5.10767 9.00432 6.00511 9.90177C6.98953 10.8862 8.00004 11.5812 9.05668 12.2425L9.30421 11.9927C9.84735 11.4447 10.6366 10.6533 11.1092 10.18L13.7606 12.8315C13.5151 13.0849 13.1048 13.5038 12.4894 14.1193Z" fill="black"/>
</g>
<defs>
<clipPath id="clip0_717_2794">
<rect width="15" height="15" fill="white" transform="translate(0 0.5)"/>
</clipPath>
</defs>
</svg>
