<svg width="22" height="22" viewBox="0 0 22 22" fill="none" xmlns="http://www.w3.org/2000/svg">
<g clip-path="url(#clip0_717_3200)">
<path d="M11 6.10352e-05C4.93457 6.10352e-05 0 4.93463 0 11C0 17.0654 4.93457 22 11 22C17.0653 22 21.9999 17.0654 21.9999 11C21.9999 4.93459 17.0653 6.10352e-05 11 6.10352e-05ZM11 20.625C5.69276 20.625 1.375 16.3072 1.375 11C1.375 5.69282 5.69276 1.37506 11 1.37506C16.3072 1.37506 20.6249 5.69278 20.6249 11C20.6249 16.3072 16.3072 20.625 11 20.625ZM17.1015 11C17.1015 11.3797 16.7937 11.6875 16.414 11.6875H11.6875V16.4141C11.6875 16.7938 11.3796 17.1016 11 17.1016C10.6203 17.1016 10.3125 16.7938 10.3125 16.4141V11.6875H5.58589C5.20622 11.6875 4.89839 11.3797 4.89839 11C4.89839 10.6203 5.20622 10.3125 5.58589 10.3125H10.3125V5.58596C10.3125 5.20624 10.6203 4.89846 11 4.89846C11.3796 4.89846 11.6875 5.20624 11.6875 5.58596V10.3125H16.414C16.7937 10.3125 17.1015 10.6203 17.1015 11Z" fill="#2B7441"/>
</g>
<defs>
<clipPath id="clip0_717_3200">
<rect width="22" height="22" fill="white"/>
</clipPath>
</defs>
</svg>
