<svg width="18" height="18" viewBox="0 0 18 18" fill="none" xmlns="http://www.w3.org/2000/svg">
<path d="M9.00046 14.2503C8.85149 14.2511 8.70564 14.2076 8.5815 14.1253C8.45736 14.0429 8.36055 13.9255 8.30343 13.7879C8.2463 13.6503 8.23144 13.4988 8.26075 13.3528C8.29005 13.2067 8.36218 13.0727 8.46796 12.9678L12.443 9.00027L8.46796 5.03276C8.34509 4.88929 8.28088 4.70473 8.28817 4.51597C8.29546 4.32722 8.37371 4.14816 8.50728 4.01459C8.64085 3.88102 8.81991 3.80277 9.00867 3.79548C9.19742 3.78819 9.38198 3.85239 9.52546 3.97526L14.0255 8.47527C14.1651 8.61579 14.2436 8.80588 14.2436 9.00402C14.2436 9.20215 14.1651 9.39224 14.0255 9.53277L9.52546 14.0328C9.38576 14.1713 9.19721 14.2494 9.00046 14.2503Z" fill="#8F94A6"/>
<path d="M4.50046 14.2501C4.35149 14.251 4.20564 14.2075 4.0815 14.1251C3.95736 14.0428 3.86055 13.9253 3.80343 13.7878C3.7463 13.6502 3.73144 13.4987 3.76075 13.3526C3.79005 13.2066 3.86218 13.0725 3.96796 12.9676L7.94296 9.00014L3.96796 5.03264C3.82673 4.89141 3.74739 4.69987 3.74739 4.50014C3.74739 4.30041 3.82673 4.10887 3.96796 3.96764C4.10918 3.82641 4.30073 3.74707 4.50046 3.74707C4.70018 3.74707 4.89173 3.82641 5.03296 3.96764L9.53296 8.46764C9.67264 8.60816 9.75105 8.79825 9.75105 8.99639C9.75105 9.19453 9.67264 9.38462 9.53296 9.52514L5.03296 14.0251C4.96349 14.096 4.88066 14.1524 4.78925 14.191C4.69785 14.2296 4.59969 14.2497 4.50046 14.2501Z" fill="#8F94A6"/>
</svg>
